<svg width="140" height="155" viewBox="0 0 140 155" fill="none" xmlns="http://www.w3.org/2000/svg">
<path d="M90.8966 153.901C84.4266 147.521 80.3966 138.671 80.3966 128.881C80.3966 120.951 83.0366 113.641 87.4766 107.751C85.5066 109.251 83.8466 110.511 82.5366 111.501C73.4866 118.381 69.2866 121.501 64.6966 123.141C59.6866 124.931 49.2566 128.671 41.4766 122.931C34.7066 117.931 32.0166 107.181 35.8466 100.371C37.9966 96.5408 41.4766 95.0808 49.1566 92.1308C54.2666 90.1708 57.4466 89.5908 63.2066 88.5508C65.7066 88.1008 68.8166 87.5308 72.7866 86.7308C88.8366 83.4708 94.7166 81.1508 96.9366 80.2808C108.827 75.6008 115.577 69.7508 119.507 60.7408C122.637 53.5608 123.557 45.2408 122.177 36.6708C120.247 24.7408 114.037 14.4508 105.137 8.44076C89.3066 -2.23924 63.2366 -1.58923 44.4266 3.80077C39.2966 5.27077 27.1466 10.7808 17.4966 20.8808C9.5366 23.1308 3.6966 30.4308 3.6966 39.1108C3.6966 49.5808 12.1866 58.0608 22.6466 58.0608C33.1066 58.0608 41.5966 49.5708 41.5966 39.1108C41.5966 38.0208 41.4866 36.9508 41.3066 35.9108C43.8066 33.5308 47.9966 30.2108 53.8366 27.9308C64.9466 23.5908 78.2966 25.2808 86.2866 32.0508C90.4266 35.5608 92.6066 40.7508 91.8366 45.2808C91.3566 48.1208 89.7366 51.0008 87.0366 53.8408C80.2166 61.0108 71.1866 63.0008 61.6166 65.1108L59.7166 65.5308C56.9066 66.1608 54.0066 66.6908 51.2166 67.2008C47.5266 67.8808 43.7166 68.5708 40.0066 69.5108C31.1466 71.7508 16.3166 75.4908 7.6366 87.3408C-3.1834 102.091 -2.4034 125.381 9.3266 138.191C16.9666 146.531 29.2566 151.571 40.6366 151.021C45.7866 150.771 50.7066 149.711 55.4666 148.671C58.6266 147.991 61.8866 147.281 65.1866 146.821C74.3066 145.551 84.2266 148.281 90.9366 154.291" fill="#4051FD"/>
<path d="M115.197 153.011C128.523 153.011 139.327 142.207 139.327 128.881C139.327 115.554 128.523 104.751 115.197 104.751C101.87 104.751 91.0667 115.554 91.0667 128.881C91.0667 142.207 101.87 153.011 115.197 153.011Z" fill="#4051FD"/>
</svg>
