<svg width="675" height="198" viewBox="0 0 675 198" fill="none" xmlns="http://www.w3.org/2000/svg">
<g clip-path="url(#clip0_1258_13685)">
<path d="M184.32 16.26H149.73V50.04H123.94C129.94 57.19 134.06 66.44 135.29 76.79H149.73V153C149.73 167.23 153.11 177.68 159.86 184.35C166.62 191.02 177.2 194.35 191.61 194.35H222.42V167.6H202.15C196.02 167.6 191.52 166.3 188.64 163.68C185.76 161.07 184.32 156.43 184.32 149.76V76.8H222.42V50.05H184.32V16.26Z" fill="currentColor"/>
<path d="M90.89 195.23C84.42 188.85 80.39 180 80.39 170.21C80.39 162.28 83.03 154.97 87.47 149.08C85.5 150.58 83.84 151.84 82.53 152.83C73.48 159.71 69.28 162.83 64.69 164.47C59.68 166.26 49.25 170 41.47 164.26C34.7 159.26 32.01 148.51 35.84 141.7C37.99 137.87 41.47 136.41 49.15 133.46C54.26 131.5 57.44 130.92 63.2 129.88C65.7 129.43 68.81 128.86 72.78 128.06C88.83 124.8 94.71 122.48 96.93 121.61C108.82 116.93 115.57 111.08 119.5 102.07C122.63 94.89 123.55 86.57 122.17 78C120.24 66.07 114.03 55.78 105.13 49.77C89.3 39.09 63.23 39.74 44.42 45.13C39.29 46.6 27.14 52.11 17.49 62.21C9.53001 64.46 3.69001 71.76 3.69001 80.44C3.69001 90.91 12.18 99.39 22.64 99.39C33.1 99.39 41.59 90.9 41.59 80.44C41.59 79.35 41.48 78.28 41.3 77.24C43.8 74.86 47.99 71.54 53.83 69.26C64.94 64.92 78.29 66.61 86.28 73.38C90.42 76.89 92.6 82.08 91.83 86.61C91.35 89.45 89.73 92.33 87.03 95.17C80.21 102.34 71.18 104.33 61.61 106.44L59.71 106.86C56.9 107.49 54 108.02 51.21 108.53C47.52 109.21 43.71 109.9 40 110.84C31.14 113.08 16.31 116.82 7.63001 128.67C-3.18999 143.42 -2.40999 166.71 9.32001 179.52C16.96 187.86 29.25 192.9 40.63 192.35C45.78 192.1 50.7 191.04 55.46 190C58.62 189.32 61.88 188.61 65.18 188.15C74.3 186.88 84.22 189.61 90.93 195.62" fill="currentColor"/>
<path d="M115.19 145.58C128.793 145.58 139.82 156.607 139.82 170.21C139.82 183.813 128.793 194.84 115.19 194.84C101.587 194.84 90.56 183.813 90.56 170.21C90.5601 156.607 101.587 145.58 115.19 145.58Z" fill="currentColor" stroke="black"/>
<path d="M245.35 194.3V2.42999H279.94V82.96H275.62C277.06 74.68 279.94 67.87 284.27 62.56C288.59 57.25 293.9 53.28 300.21 50.67C306.51 48.06 313.45 46.75 321.02 46.75C331.65 46.75 340.61 49.05 347.91 53.64C355.21 58.23 360.7 64.68 364.39 72.96C368.08 81.25 369.93 90.79 369.93 101.6V194.29H335.34V109.98C335.34 98.27 333.36 89.49 329.39 83.63C325.43 77.78 319.21 74.85 310.74 74.85C301.37 74.85 293.89 77.92 288.31 84.04C282.72 90.17 279.93 99.08 279.93 110.79V194.29H245.34L245.35 194.3Z" fill="currentColor"/>
<path d="M429.14 194.3C418.69 194.3 410.31 191.6 404.01 186.19C397.7 180.78 394.55 172.14 394.55 160.25V2.42999H429.14V156.73C429.14 160.34 430.09 163.04 431.98 164.84C433.87 166.64 436.53 167.54 439.95 167.54H450.49V194.29H429.14V194.3Z" fill="currentColor"/>
<path d="M472.86 30.81V0H508.8V30.81H472.86ZM473.4 194.3V49.99H507.99V194.29H473.4V194.3Z" fill="currentColor"/>
<path d="M603.84 197.54C589.61 197.54 577.13 194.43 566.41 188.22C555.69 182.01 547.4 173.22 541.55 161.87C535.69 150.52 532.77 137.28 532.77 122.15C532.77 107.02 535.7 93.55 541.55 82.29C547.4 71.03 555.69 62.29 566.41 56.08C577.13 49.87 589.6 46.76 603.84 46.76C618.08 46.76 630.5 49.87 641.13 56.08C651.76 62.3 660 71.04 665.86 82.29C671.71 93.55 674.64 106.84 674.64 122.15C674.64 137.46 671.71 150.52 665.86 161.87C660 173.22 651.76 182 641.13 188.22C630.5 194.44 618.07 197.54 603.84 197.54ZM603.84 169.44C615.01 169.44 623.61 165.3 629.65 157.01C635.68 148.73 638.7 137.11 638.7 122.15C638.7 107.19 635.68 95.8 629.65 87.42C623.61 79.04 615.01 74.85 603.84 74.85C592.67 74.85 584.02 79.04 577.9 87.42C571.77 95.8 568.71 107.38 568.71 122.15C568.71 136.92 571.77 148.73 577.9 157.01C584.02 165.3 592.67 169.44 603.84 169.44Z" fill="currentColor"/>
</g>
<defs>
<clipPath id="clip0_1258_13685">
<rect width="674.65" height="197.54" fill="currentColor"/>
</clipPath>
</defs>
</svg>
