<svg width="328" height="154" viewBox="0 0 328 154" fill="none" xmlns="http://www.w3.org/2000/svg">
<path d="M315 27.2034V130H15V46.7157C21.5089 40.2116 36.1243 26.3475 42.5148 22.924C50.503 18.6447 53.1657 29.6797 66.4793 46.7157C77.1302 60.3446 89.2604 52.3944 93.9941 46.7157L117.071 36.5822C121.805 41.977 132.692 50.3521 138.373 40.6944C144.053 31.0366 157.899 27.6763 164.112 27.2034C171.697 31.2598 189.406 40.8412 199.567 46.7157C212.269 54.0589 216.344 45.9814 227.368 36.5822C238.393 27.183 250.376 38.4914 257.805 40.6944C265.235 42.8973 272.664 32.1764 274.342 29.6797C276.019 27.183 285.846 30.414 290.878 29.6797C294.905 29.0922 296.385 21.6378 302.032 22.0223L315 27.2034Z" fill="url(#paint0_linear_2113_22921)" fill-opacity="0.61"/>
<path d="M303.472 136C303.472 135.573 303.536 135.192 303.664 134.856C303.792 134.52 304.011 134.208 304.32 133.92C304.629 133.632 305.056 133.344 305.6 133.056C305.861 132.923 306.069 132.8 306.224 132.688C306.384 132.571 306.499 132.451 306.568 132.328C306.637 132.205 306.672 132.056 306.672 131.88C306.672 131.699 306.632 131.544 306.552 131.416C306.477 131.283 306.365 131.179 306.216 131.104C306.067 131.024 305.877 130.984 305.648 130.984C305.285 130.984 304.997 131.083 304.784 131.28C304.576 131.472 304.445 131.749 304.392 132.112L303.496 132.056C303.56 131.485 303.776 131.032 304.144 130.696C304.517 130.36 305.019 130.192 305.648 130.192C306.053 130.192 306.397 130.264 306.68 130.408C306.968 130.547 307.187 130.741 307.336 130.992C307.491 131.243 307.568 131.533 307.568 131.864C307.568 132.152 307.52 132.4 307.424 132.608C307.328 132.816 307.168 133.011 306.944 133.192C306.72 133.368 306.416 133.557 306.032 133.76C305.541 134.021 305.171 134.28 304.92 134.536C304.669 134.787 304.536 135.011 304.52 135.208H307.568V136H303.472ZM310.649 136.128C310.18 136.128 309.772 136.008 309.425 135.768C309.078 135.528 308.812 135.187 308.625 134.744C308.438 134.301 308.345 133.776 308.345 133.168C308.345 132.56 308.438 132.035 308.625 131.592C308.817 131.144 309.084 130.8 309.425 130.56C309.772 130.315 310.18 130.192 310.649 130.192C311.124 130.192 311.532 130.315 311.873 130.56C312.22 130.8 312.486 131.141 312.673 131.584C312.865 132.027 312.961 132.555 312.961 133.168C312.961 133.776 312.868 134.301 312.681 134.744C312.494 135.187 312.228 135.528 311.881 135.768C311.534 136.008 311.124 136.128 310.649 136.128ZM310.649 135.336C311.102 135.336 311.452 135.149 311.697 134.776C311.942 134.403 312.065 133.867 312.065 133.168C312.065 132.699 312.009 132.301 311.897 131.976C311.79 131.651 311.63 131.405 311.417 131.24C311.209 131.069 310.953 130.984 310.649 130.984C310.35 130.984 310.094 131.069 309.881 131.24C309.673 131.405 309.513 131.651 309.401 131.976C309.294 132.301 309.241 132.699 309.241 133.168C309.241 133.867 309.364 134.403 309.609 134.776C309.854 135.149 310.201 135.336 310.649 135.336ZM313.738 136C313.738 135.573 313.802 135.192 313.93 134.856C314.058 134.52 314.276 134.208 314.586 133.92C314.895 133.632 315.322 133.344 315.866 133.056C316.127 132.923 316.335 132.8 316.49 132.688C316.65 132.571 316.764 132.451 316.834 132.328C316.903 132.205 316.938 132.056 316.938 131.88C316.938 131.699 316.898 131.544 316.818 131.416C316.743 131.283 316.631 131.179 316.482 131.104C316.332 131.024 316.143 130.984 315.914 130.984C315.551 130.984 315.263 131.083 315.05 131.28C314.842 131.472 314.711 131.749 314.658 132.112L313.762 132.056C313.826 131.485 314.042 131.032 314.41 130.696C314.783 130.36 315.284 130.192 315.914 130.192C316.319 130.192 316.663 130.264 316.946 130.408C317.234 130.547 317.452 130.741 317.602 130.992C317.756 131.243 317.834 131.533 317.834 131.864C317.834 132.152 317.786 132.4 317.69 132.608C317.594 132.816 317.434 133.011 317.21 133.192C316.986 133.368 316.682 133.557 316.298 133.76C315.807 134.021 315.436 134.28 315.186 134.536C314.935 134.787 314.802 135.011 314.786 135.208H317.834V136H313.738ZM320.771 136.128C320.323 136.128 319.944 136.029 319.635 135.832C319.325 135.629 319.091 135.339 318.931 134.96C318.771 134.576 318.691 134.112 318.691 133.568C318.691 133.093 318.731 132.653 318.811 132.248C318.896 131.837 319.029 131.48 319.211 131.176C319.392 130.867 319.627 130.627 319.915 130.456C320.208 130.28 320.563 130.192 320.979 130.192C321.501 130.192 321.909 130.32 322.203 130.576C322.496 130.827 322.699 131.163 322.811 131.584L321.955 131.656C321.891 131.448 321.784 131.283 321.635 131.16C321.491 131.037 321.272 130.976 320.979 130.976C320.541 130.976 320.197 131.163 319.947 131.536C319.696 131.909 319.563 132.48 319.547 133.248L319.395 133.216C319.453 133.035 319.552 132.869 319.691 132.72C319.829 132.565 320.003 132.443 320.211 132.352C320.424 132.256 320.667 132.208 320.939 132.208C321.317 132.208 321.648 132.288 321.931 132.448C322.219 132.603 322.44 132.824 322.595 133.112C322.755 133.4 322.835 133.736 322.835 134.12C322.835 134.536 322.747 134.896 322.571 135.2C322.395 135.499 322.152 135.728 321.843 135.888C321.533 136.048 321.176 136.128 320.771 136.128ZM320.779 135.36C321.125 135.36 321.405 135.251 321.619 135.032C321.837 134.808 321.947 134.504 321.947 134.12C321.947 133.88 321.899 133.672 321.803 133.496C321.712 133.315 321.581 133.176 321.411 133.08C321.245 132.984 321.053 132.936 320.835 132.936C320.595 132.936 320.381 132.984 320.195 133.08C320.008 133.176 319.861 133.315 319.755 133.496C319.648 133.672 319.595 133.88 319.595 134.12C319.595 134.36 319.643 134.573 319.739 134.76C319.835 134.947 319.971 135.093 320.147 135.2C320.328 135.307 320.539 135.36 320.779 135.36Z" fill="black"/>
<path d="M241.472 136C241.472 135.573 241.536 135.192 241.664 134.856C241.792 134.52 242.011 134.208 242.32 133.92C242.629 133.632 243.056 133.344 243.6 133.056C243.861 132.923 244.069 132.8 244.224 132.688C244.384 132.571 244.499 132.451 244.568 132.328C244.637 132.205 244.672 132.056 244.672 131.88C244.672 131.699 244.632 131.544 244.552 131.416C244.477 131.283 244.365 131.179 244.216 131.104C244.067 131.024 243.877 130.984 243.648 130.984C243.285 130.984 242.997 131.083 242.784 131.28C242.576 131.472 242.445 131.749 242.392 132.112L241.496 132.056C241.56 131.485 241.776 131.032 242.144 130.696C242.517 130.36 243.019 130.192 243.648 130.192C244.053 130.192 244.397 130.264 244.68 130.408C244.968 130.547 245.187 130.741 245.336 130.992C245.491 131.243 245.568 131.533 245.568 131.864C245.568 132.152 245.52 132.4 245.424 132.608C245.328 132.816 245.168 133.011 244.944 133.192C244.72 133.368 244.416 133.557 244.032 133.76C243.541 134.021 243.171 134.28 242.92 134.536C242.669 134.787 242.536 135.011 242.52 135.208H245.568V136H241.472ZM248.649 136.128C248.18 136.128 247.772 136.008 247.425 135.768C247.078 135.528 246.812 135.187 246.625 134.744C246.438 134.301 246.345 133.776 246.345 133.168C246.345 132.56 246.438 132.035 246.625 131.592C246.817 131.144 247.084 130.8 247.425 130.56C247.772 130.315 248.18 130.192 248.649 130.192C249.124 130.192 249.532 130.315 249.873 130.56C250.22 130.8 250.486 131.141 250.673 131.584C250.865 132.027 250.961 132.555 250.961 133.168C250.961 133.776 250.868 134.301 250.681 134.744C250.494 135.187 250.228 135.528 249.881 135.768C249.534 136.008 249.124 136.128 248.649 136.128ZM248.649 135.336C249.102 135.336 249.452 135.149 249.697 134.776C249.942 134.403 250.065 133.867 250.065 133.168C250.065 132.699 250.009 132.301 249.897 131.976C249.79 131.651 249.63 131.405 249.417 131.24C249.209 131.069 248.953 130.984 248.649 130.984C248.35 130.984 248.094 131.069 247.881 131.24C247.673 131.405 247.513 131.651 247.401 131.976C247.294 132.301 247.241 132.699 247.241 133.168C247.241 133.867 247.364 134.403 247.609 134.776C247.854 135.149 248.201 135.336 248.649 135.336ZM251.738 136C251.738 135.573 251.802 135.192 251.93 134.856C252.058 134.52 252.276 134.208 252.586 133.92C252.895 133.632 253.322 133.344 253.866 133.056C254.127 132.923 254.335 132.8 254.49 132.688C254.65 132.571 254.764 132.451 254.834 132.328C254.903 132.205 254.938 132.056 254.938 131.88C254.938 131.699 254.898 131.544 254.818 131.416C254.743 131.283 254.631 131.179 254.482 131.104C254.332 131.024 254.143 130.984 253.914 130.984C253.551 130.984 253.263 131.083 253.05 131.28C252.842 131.472 252.711 131.749 252.658 132.112L251.762 132.056C251.826 131.485 252.042 131.032 252.41 130.696C252.783 130.36 253.284 130.192 253.914 130.192C254.319 130.192 254.663 130.264 254.946 130.408C255.234 130.547 255.452 130.741 255.602 130.992C255.756 131.243 255.834 131.533 255.834 131.864C255.834 132.152 255.786 132.4 255.69 132.608C255.594 132.816 255.434 133.011 255.21 133.192C254.986 133.368 254.682 133.557 254.298 133.76C253.807 134.021 253.436 134.28 253.186 134.536C252.935 134.787 252.802 135.011 252.786 135.208H255.834V136H251.738ZM258.857 136.128C258.435 136.128 258.075 136.061 257.777 135.928C257.478 135.789 257.243 135.597 257.073 135.352C256.902 135.107 256.803 134.824 256.777 134.504L257.665 134.448C257.707 134.747 257.833 134.971 258.041 135.12C258.254 135.264 258.526 135.336 258.857 135.336C259.23 135.336 259.523 135.232 259.737 135.024C259.955 134.816 260.065 134.525 260.065 134.152C260.065 133.907 260.014 133.696 259.913 133.52C259.817 133.339 259.678 133.2 259.497 133.104C259.315 133.003 259.099 132.952 258.849 132.952C258.598 132.952 258.374 133.005 258.177 133.112C257.979 133.219 257.838 133.365 257.753 133.552H256.857L257.241 130.32H260.569V131.112H258.009L257.769 133.056L257.633 132.936C257.723 132.776 257.838 132.645 257.977 132.544C258.115 132.437 258.275 132.357 258.457 132.304C258.643 132.245 258.841 132.216 259.049 132.216C259.433 132.216 259.766 132.299 260.049 132.464C260.337 132.629 260.561 132.859 260.721 133.152C260.881 133.445 260.961 133.779 260.961 134.152C260.961 134.541 260.873 134.885 260.697 135.184C260.521 135.483 260.275 135.715 259.961 135.88C259.646 136.045 259.278 136.128 258.857 136.128Z" fill="black"/>
<path d="M182.472 136C182.472 135.573 182.536 135.192 182.664 134.856C182.792 134.52 183.011 134.208 183.32 133.92C183.629 133.632 184.056 133.344 184.6 133.056C184.861 132.923 185.069 132.8 185.224 132.688C185.384 132.571 185.499 132.451 185.568 132.328C185.637 132.205 185.672 132.056 185.672 131.88C185.672 131.699 185.632 131.544 185.552 131.416C185.477 131.283 185.365 131.179 185.216 131.104C185.067 131.024 184.877 130.984 184.648 130.984C184.285 130.984 183.997 131.083 183.784 131.28C183.576 131.472 183.445 131.749 183.392 132.112L182.496 132.056C182.56 131.485 182.776 131.032 183.144 130.696C183.517 130.36 184.019 130.192 184.648 130.192C185.053 130.192 185.397 130.264 185.68 130.408C185.968 130.547 186.187 130.741 186.336 130.992C186.491 131.243 186.568 131.533 186.568 131.864C186.568 132.152 186.52 132.4 186.424 132.608C186.328 132.816 186.168 133.011 185.944 133.192C185.72 133.368 185.416 133.557 185.032 133.76C184.541 134.021 184.171 134.28 183.92 134.536C183.669 134.787 183.536 135.011 183.52 135.208H186.568V136H182.472ZM189.649 136.128C189.18 136.128 188.772 136.008 188.425 135.768C188.078 135.528 187.812 135.187 187.625 134.744C187.438 134.301 187.345 133.776 187.345 133.168C187.345 132.56 187.438 132.035 187.625 131.592C187.817 131.144 188.084 130.8 188.425 130.56C188.772 130.315 189.18 130.192 189.649 130.192C190.124 130.192 190.532 130.315 190.873 130.56C191.22 130.8 191.486 131.141 191.673 131.584C191.865 132.027 191.961 132.555 191.961 133.168C191.961 133.776 191.868 134.301 191.681 134.744C191.494 135.187 191.228 135.528 190.881 135.768C190.534 136.008 190.124 136.128 189.649 136.128ZM189.649 135.336C190.102 135.336 190.452 135.149 190.697 134.776C190.942 134.403 191.065 133.867 191.065 133.168C191.065 132.699 191.009 132.301 190.897 131.976C190.79 131.651 190.63 131.405 190.417 131.24C190.209 131.069 189.953 130.984 189.649 130.984C189.35 130.984 189.094 131.069 188.881 131.24C188.673 131.405 188.513 131.651 188.401 131.976C188.294 132.301 188.241 132.699 188.241 133.168C188.241 133.867 188.364 134.403 188.609 134.776C188.854 135.149 189.201 135.336 189.649 135.336ZM192.738 136C192.738 135.573 192.802 135.192 192.93 134.856C193.058 134.52 193.276 134.208 193.586 133.92C193.895 133.632 194.322 133.344 194.866 133.056C195.127 132.923 195.335 132.8 195.49 132.688C195.65 132.571 195.764 132.451 195.834 132.328C195.903 132.205 195.938 132.056 195.938 131.88C195.938 131.699 195.898 131.544 195.818 131.416C195.743 131.283 195.631 131.179 195.482 131.104C195.332 131.024 195.143 130.984 194.914 130.984C194.551 130.984 194.263 131.083 194.05 131.28C193.842 131.472 193.711 131.749 193.658 132.112L192.762 132.056C192.826 131.485 193.042 131.032 193.41 130.696C193.783 130.36 194.284 130.192 194.914 130.192C195.319 130.192 195.663 130.264 195.946 130.408C196.234 130.547 196.452 130.741 196.602 130.992C196.756 131.243 196.834 131.533 196.834 131.864C196.834 132.152 196.786 132.4 196.69 132.608C196.594 132.816 196.434 133.011 196.21 133.192C195.986 133.368 195.682 133.557 195.298 133.76C194.807 134.021 194.436 134.28 194.186 134.536C193.935 134.787 193.802 135.011 193.786 135.208H196.834V136H192.738ZM200.197 136V134.816H197.333V134.08L200.093 130.32H201.061V134.032H201.757V134.816H201.061V136H200.197ZM198.317 134.032H200.197V131.52L198.317 134.032Z" fill="black"/>
<path d="M122.472 136C122.472 135.573 122.536 135.192 122.664 134.856C122.792 134.52 123.011 134.208 123.32 133.92C123.629 133.632 124.056 133.344 124.6 133.056C124.861 132.923 125.069 132.8 125.224 132.688C125.384 132.571 125.499 132.451 125.568 132.328C125.637 132.205 125.672 132.056 125.672 131.88C125.672 131.699 125.632 131.544 125.552 131.416C125.477 131.283 125.365 131.179 125.216 131.104C125.067 131.024 124.877 130.984 124.648 130.984C124.285 130.984 123.997 131.083 123.784 131.28C123.576 131.472 123.445 131.749 123.392 132.112L122.496 132.056C122.56 131.485 122.776 131.032 123.144 130.696C123.517 130.36 124.019 130.192 124.648 130.192C125.053 130.192 125.397 130.264 125.68 130.408C125.968 130.547 126.187 130.741 126.336 130.992C126.491 131.243 126.568 131.533 126.568 131.864C126.568 132.152 126.52 132.4 126.424 132.608C126.328 132.816 126.168 133.011 125.944 133.192C125.72 133.368 125.416 133.557 125.032 133.76C124.541 134.021 124.171 134.28 123.92 134.536C123.669 134.787 123.536 135.011 123.52 135.208H126.568V136H122.472ZM129.649 136.128C129.18 136.128 128.772 136.008 128.425 135.768C128.078 135.528 127.812 135.187 127.625 134.744C127.438 134.301 127.345 133.776 127.345 133.168C127.345 132.56 127.438 132.035 127.625 131.592C127.817 131.144 128.084 130.8 128.425 130.56C128.772 130.315 129.18 130.192 129.649 130.192C130.124 130.192 130.532 130.315 130.873 130.56C131.22 130.8 131.486 131.141 131.673 131.584C131.865 132.027 131.961 132.555 131.961 133.168C131.961 133.776 131.868 134.301 131.681 134.744C131.494 135.187 131.228 135.528 130.881 135.768C130.534 136.008 130.124 136.128 129.649 136.128ZM129.649 135.336C130.102 135.336 130.452 135.149 130.697 134.776C130.942 134.403 131.065 133.867 131.065 133.168C131.065 132.699 131.009 132.301 130.897 131.976C130.79 131.651 130.63 131.405 130.417 131.24C130.209 131.069 129.953 130.984 129.649 130.984C129.35 130.984 129.094 131.069 128.881 131.24C128.673 131.405 128.513 131.651 128.401 131.976C128.294 132.301 128.241 132.699 128.241 133.168C128.241 133.867 128.364 134.403 128.609 134.776C128.854 135.149 129.201 135.336 129.649 135.336ZM132.738 136C132.738 135.573 132.802 135.192 132.93 134.856C133.058 134.52 133.276 134.208 133.586 133.92C133.895 133.632 134.322 133.344 134.866 133.056C135.127 132.923 135.335 132.8 135.49 132.688C135.65 132.571 135.764 132.451 135.834 132.328C135.903 132.205 135.938 132.056 135.938 131.88C135.938 131.699 135.898 131.544 135.818 131.416C135.743 131.283 135.631 131.179 135.482 131.104C135.332 131.024 135.143 130.984 134.914 130.984C134.551 130.984 134.263 131.083 134.05 131.28C133.842 131.472 133.711 131.749 133.658 132.112L132.762 132.056C132.826 131.485 133.042 131.032 133.41 130.696C133.783 130.36 134.284 130.192 134.914 130.192C135.319 130.192 135.663 130.264 135.946 130.408C136.234 130.547 136.452 130.741 136.602 130.992C136.756 131.243 136.834 131.533 136.834 131.864C136.834 132.152 136.786 132.4 136.69 132.608C136.594 132.816 136.434 133.011 136.21 133.192C135.986 133.368 135.682 133.557 135.298 133.76C134.807 134.021 134.436 134.28 134.186 134.536C133.935 134.787 133.802 135.011 133.786 135.208H136.834V136H132.738ZM139.613 136.128C138.957 136.128 138.45 135.976 138.093 135.672C137.741 135.368 137.551 134.968 137.525 134.472L138.413 134.424C138.445 134.749 138.567 134.984 138.781 135.128C138.999 135.267 139.277 135.336 139.613 135.336C139.837 135.336 140.042 135.307 140.229 135.248C140.421 135.184 140.573 135.083 140.685 134.944C140.802 134.8 140.861 134.613 140.861 134.384C140.861 134.043 140.746 133.792 140.517 133.632C140.287 133.467 139.983 133.384 139.605 133.384H139.133V132.632H139.605C139.909 132.632 140.162 132.571 140.365 132.448C140.567 132.325 140.669 132.112 140.669 131.808C140.669 131.541 140.583 131.339 140.413 131.2C140.242 131.056 139.981 130.984 139.629 130.984C139.287 130.984 139.029 131.051 138.853 131.184C138.677 131.317 138.573 131.499 138.541 131.728L137.653 131.68C137.706 131.232 137.901 130.872 138.237 130.6C138.578 130.328 139.042 130.192 139.629 130.192C140.034 130.192 140.381 130.256 140.669 130.384C140.957 130.507 141.178 130.685 141.333 130.92C141.487 131.155 141.565 131.429 141.565 131.744C141.565 132.091 141.453 132.373 141.229 132.592C141.01 132.811 140.687 132.96 140.261 133.04V132.896C140.725 132.955 141.09 133.12 141.357 133.392C141.623 133.659 141.757 134 141.757 134.416C141.757 134.773 141.666 135.083 141.485 135.344C141.303 135.6 141.053 135.795 140.733 135.928C140.413 136.061 140.039 136.128 139.613 136.128Z" fill="black"/>
<path d="M63.472 136C63.472 135.573 63.536 135.192 63.664 134.856C63.792 134.52 64.0107 134.208 64.32 133.92C64.6293 133.632 65.056 133.344 65.6 133.056C65.8613 132.923 66.0693 132.8 66.224 132.688C66.384 132.571 66.4987 132.451 66.568 132.328C66.6373 132.205 66.672 132.056 66.672 131.88C66.672 131.699 66.632 131.544 66.552 131.416C66.4773 131.283 66.3653 131.179 66.216 131.104C66.0667 131.024 65.8773 130.984 65.648 130.984C65.2853 130.984 64.9973 131.083 64.784 131.28C64.576 131.472 64.4453 131.749 64.392 132.112L63.496 132.056C63.56 131.485 63.776 131.032 64.144 130.696C64.5173 130.36 65.0187 130.192 65.648 130.192C66.0533 130.192 66.3973 130.264 66.68 130.408C66.968 130.547 67.1867 130.741 67.336 130.992C67.4907 131.243 67.568 131.533 67.568 131.864C67.568 132.152 67.52 132.4 67.424 132.608C67.328 132.816 67.168 133.011 66.944 133.192C66.72 133.368 66.416 133.557 66.032 133.76C65.5413 134.021 65.1707 134.28 64.92 134.536C64.6693 134.787 64.536 135.011 64.52 135.208H67.568V136H63.472ZM70.6491 136.128C70.1798 136.128 69.7718 136.008 69.4251 135.768C69.0785 135.528 68.8118 135.187 68.6251 134.744C68.4385 134.301 68.3451 133.776 68.3451 133.168C68.3451 132.56 68.4385 132.035 68.6251 131.592C68.8171 131.144 69.0838 130.8 69.4251 130.56C69.7718 130.315 70.1798 130.192 70.6491 130.192C71.1238 130.192 71.5318 130.315 71.8731 130.56C72.2198 130.8 72.4865 131.141 72.6731 131.584C72.8651 132.027 72.9611 132.555 72.9611 133.168C72.9611 133.776 72.8678 134.301 72.6811 134.744C72.4945 135.187 72.2278 135.528 71.8811 135.768C71.5345 136.008 71.1238 136.128 70.6491 136.128ZM70.6491 135.336C71.1025 135.336 71.4518 135.149 71.6971 134.776C71.9425 134.403 72.0651 133.867 72.0651 133.168C72.0651 132.699 72.0091 132.301 71.8971 131.976C71.7905 131.651 71.6305 131.405 71.4171 131.24C71.2091 131.069 70.9531 130.984 70.6491 130.984C70.3505 130.984 70.0945 131.069 69.8811 131.24C69.6731 131.405 69.5131 131.651 69.4011 131.976C69.2945 132.301 69.2411 132.699 69.2411 133.168C69.2411 133.867 69.3638 134.403 69.6091 134.776C69.8545 135.149 70.2011 135.336 70.6491 135.336ZM73.7376 136C73.7376 135.573 73.8016 135.192 73.9296 134.856C74.0576 134.52 74.2763 134.208 74.5856 133.92C74.895 133.632 75.3216 133.344 75.8656 133.056C76.127 132.923 76.335 132.8 76.4896 132.688C76.6496 132.571 76.7643 132.451 76.8336 132.328C76.903 132.205 76.9376 132.056 76.9376 131.88C76.9376 131.699 76.8976 131.544 76.8176 131.416C76.743 131.283 76.631 131.179 76.4816 131.104C76.3323 131.024 76.143 130.984 75.9136 130.984C75.551 130.984 75.263 131.083 75.0496 131.28C74.8416 131.472 74.711 131.749 74.6576 132.112L73.7616 132.056C73.8256 131.485 74.0416 131.032 74.4096 130.696C74.783 130.36 75.2843 130.192 75.9136 130.192C76.319 130.192 76.663 130.264 76.9456 130.408C77.2336 130.547 77.4523 130.741 77.6016 130.992C77.7563 131.243 77.8336 131.533 77.8336 131.864C77.8336 132.152 77.7856 132.4 77.6896 132.608C77.5936 132.816 77.4336 133.011 77.2096 133.192C76.9856 133.368 76.6816 133.557 76.2976 133.76C75.807 134.021 75.4363 134.28 75.1856 134.536C74.935 134.787 74.8016 135.011 74.7856 135.208H77.8336V136H73.7376ZM78.7767 136C78.7767 135.573 78.8407 135.192 78.9687 134.856C79.0967 134.52 79.3154 134.208 79.6247 133.92C79.934 133.632 80.3607 133.344 80.9047 133.056C81.166 132.923 81.374 132.8 81.5287 132.688C81.6887 132.571 81.8034 132.451 81.8727 132.328C81.942 132.205 81.9767 132.056 81.9767 131.88C81.9767 131.699 81.9367 131.544 81.8567 131.416C81.782 131.283 81.67 131.179 81.5207 131.104C81.3714 131.024 81.182 130.984 80.9527 130.984C80.59 130.984 80.302 131.083 80.0887 131.28C79.8807 131.472 79.75 131.749 79.6967 132.112L78.8007 132.056C78.8647 131.485 79.0807 131.032 79.4487 130.696C79.822 130.36 80.3234 130.192 80.9527 130.192C81.358 130.192 81.702 130.264 81.9847 130.408C82.2727 130.547 82.4914 130.741 82.6407 130.992C82.7954 131.243 82.8727 131.533 82.8727 131.864C82.8727 132.152 82.8247 132.4 82.7287 132.608C82.6327 132.816 82.4727 133.011 82.2487 133.192C82.0247 133.368 81.7207 133.557 81.3367 133.76C80.846 134.021 80.4754 134.28 80.2247 134.536C79.974 134.787 79.8407 135.011 79.8247 135.208H82.8727V136H78.7767Z" fill="black"/>
<path d="M0.472 50C0.472 49.5733 0.536 49.192 0.664 48.856C0.792 48.52 1.01067 48.208 1.32 47.92C1.62933 47.632 2.056 47.344 2.6 47.056C2.86133 46.9227 3.06933 46.8 3.224 46.688C3.384 46.5707 3.49867 46.4507 3.568 46.328C3.63733 46.2053 3.672 46.056 3.672 45.88C3.672 45.6987 3.632 45.544 3.552 45.416C3.47733 45.2827 3.36533 45.1787 3.216 45.104C3.06667 45.024 2.87733 44.984 2.648 44.984C2.28533 44.984 1.99733 45.0827 1.784 45.28C1.576 45.472 1.44533 45.7493 1.392 46.112L0.496 46.056C0.56 45.4853 0.776 45.032 1.144 44.696C1.51733 44.36 2.01867 44.192 2.648 44.192C3.05333 44.192 3.39733 44.264 3.68 44.408C3.968 44.5467 4.18667 44.7413 4.336 44.992C4.49067 45.2427 4.568 45.5333 4.568 45.864C4.568 46.152 4.52 46.4 4.424 46.608C4.328 46.816 4.168 47.0107 3.944 47.192C3.72 47.368 3.416 47.5573 3.032 47.76C2.54133 48.0213 2.17067 48.28 1.92 48.536C1.66933 48.7867 1.536 49.0107 1.52 49.208H4.568V50H0.472ZM7.64913 50.128C7.17979 50.128 6.77179 50.008 6.42513 49.768C6.07846 49.528 5.81179 49.1867 5.62513 48.744C5.43846 48.3013 5.34513 47.776 5.34513 47.168C5.34513 46.56 5.43846 46.0347 5.62513 45.592C5.81713 45.144 6.08379 44.8 6.42513 44.56C6.77179 44.3147 7.17979 44.192 7.64913 44.192C8.12379 44.192 8.53179 44.3147 8.87313 44.56C9.21979 44.8 9.48646 45.1413 9.67313 45.584C9.86513 46.0267 9.96113 46.5547 9.96113 47.168C9.96113 47.776 9.86779 48.3013 9.68113 48.744C9.49446 49.1867 9.22779 49.528 8.88113 49.768C8.53446 50.008 8.12379 50.128 7.64913 50.128ZM7.64913 49.336C8.10246 49.336 8.45179 49.1493 8.69713 48.776C8.94246 48.4027 9.06512 47.8667 9.06512 47.168C9.06512 46.6987 9.00913 46.3013 8.89713 45.976C8.79046 45.6507 8.63046 45.4053 8.41713 45.24C8.20913 45.0693 7.95313 44.984 7.64913 44.984C7.35046 44.984 7.09446 45.0693 6.88113 45.24C6.67313 45.4053 6.51313 45.6507 6.40113 45.976C6.29446 46.3013 6.24113 46.6987 6.24113 47.168C6.24113 47.8667 6.36379 48.4027 6.60913 48.776C6.85446 49.1493 7.20113 49.336 7.64913 49.336Z" fill="black"/>
<path d="M1.512 84V79.952H0.312V79.256H0.8C1.01333 79.256 1.18667 79.2293 1.32 79.176C1.45333 79.1173 1.54933 79.0213 1.608 78.888C1.66667 78.7493 1.696 78.56 1.696 78.32H2.376V84H1.512ZM5.85225 84.128C5.38292 84.128 4.97492 84.008 4.62825 83.768C4.28158 83.528 4.01492 83.1867 3.82825 82.744C3.64158 82.3013 3.54825 81.776 3.54825 81.168C3.54825 80.56 3.64158 80.0347 3.82825 79.592C4.02025 79.144 4.28692 78.8 4.62825 78.56C4.97492 78.3147 5.38292 78.192 5.85225 78.192C6.32692 78.192 6.73492 78.3147 7.07625 78.56C7.42292 78.8 7.68958 79.1413 7.87625 79.584C8.06825 80.0267 8.16425 80.5547 8.16425 81.168C8.16425 81.776 8.07092 82.3013 7.88425 82.744C7.69758 83.1867 7.43092 83.528 7.08425 83.768C6.73758 84.008 6.32692 84.128 5.85225 84.128ZM5.85225 83.336C6.30558 83.336 6.65492 83.1493 6.90025 82.776C7.14558 82.4027 7.26825 81.8667 7.26825 81.168C7.26825 80.6987 7.21225 80.3013 7.10025 79.976C6.99358 79.6507 6.83358 79.4053 6.62025 79.24C6.41225 79.0693 6.15625 78.984 5.85225 78.984C5.55358 78.984 5.29758 79.0693 5.08425 79.24C4.87625 79.4053 4.71625 79.6507 4.60425 79.976C4.49758 80.3013 4.44425 80.6987 4.44425 81.168C4.44425 81.8667 4.56692 82.4027 4.81225 82.776C5.05758 83.1493 5.40425 83.336 5.85225 83.336Z" fill="black"/>
<line opacity="0.5" y1="-0.25" x2="105.054" y2="-0.25" transform="matrix(-0.0064667 -0.999979 0.999991 -0.00426042 15.418 124.684)" stroke="#B1B1B1" stroke-width="0.5"/>
<line opacity="0.5" x1="194.75" y1="122" x2="194.75" y2="20" stroke="#B1B1B1" stroke-width="0.5"/>
<line opacity="0.5" x1="75.75" y1="122" x2="75.75" y2="20" stroke="#B1B1B1" stroke-width="0.5"/>
<line x1="254.75" y1="122" x2="254.75" y2="20" stroke="#B1B1B1" stroke-width="0.5"/>
<line opacity="0.5" x1="134.75" y1="122" x2="134.75" y2="20" stroke="#B1B1B1" stroke-width="0.5"/>
<line opacity="0.5" x1="314.75" y1="125" x2="314.75" y2="24" stroke="#B1B1B1" stroke-width="0.5"/>
<path d="M15 53.758V128H314V67.8503C307.513 63.1528 292.946 53.1399 286.577 50.6673C278.615 47.5767 275.962 55.5464 262.692 67.8503C252.077 77.6933 239.987 71.9515 235.269 67.8503L212.269 60.5316C207.551 64.4278 196.7 70.4765 191.038 63.5015C185.377 56.5265 171.577 54.0996 165.385 53.758C157.826 56.6876 140.176 63.6076 130.048 67.8503C117.388 73.1536 113.327 67.3199 102.34 60.5316C91.3521 53.7433 79.4089 61.9105 72.0042 63.5015C64.5994 65.0925 57.1947 57.3496 55.5227 55.5464C53.8506 53.7433 44.0572 56.0768 39.0411 55.5464C35.0282 55.1222 33.5529 49.7384 27.9251 50.0161L15 53.758Z" fill="url(#paint1_linear_2113_22921)" fill-opacity="0.74"/>
<path d="M15 78.3608V125H314V87.2136C307.513 84.2627 292.946 77.9725 286.577 76.4192C278.615 74.4777 275.962 79.4843 262.692 87.2136C252.077 93.3971 239.987 89.7901 235.269 87.2136L212.269 82.616C207.551 85.0636 196.7 88.8635 191.038 84.4817C185.377 80.1 171.577 78.5754 165.385 78.3608C157.826 80.2012 140.176 84.5483 130.048 87.2136C117.388 90.5452 113.327 86.8805 102.34 82.616C91.3521 78.3516 79.4089 83.4822 72.0042 84.4817C64.5994 85.4812 57.1947 80.617 55.5227 79.4843C53.8506 78.3516 44.0572 79.8175 39.0411 79.4843C35.0282 79.2178 33.5529 75.8357 27.9251 76.0101L15 78.3608Z" fill="url(#paint2_linear_2113_22921)"/>
<path d="M15 53.8734L27.9251 50.0166C33.5529 49.7304 35.0282 55.2794 39.0411 55.7167C44.0572 56.2633 53.8506 53.8582 55.5227 55.7167C57.1947 57.5752 64.5994 65.5559 72.0042 63.916C79.4089 62.2762 91.3521 53.8582 102.34 60.8549C113.327 67.8517 117.388 73.8645 130.048 68.3983C140.176 64.0253 157.826 56.8929 165.385 53.8734C171.577 54.2254 185.377 56.7268 191.038 63.916C196.7 71.1052 207.551 64.8708 212.269 60.8549L235.269 68.3983C239.987 72.6255 252.077 78.5435 262.692 68.3983C275.962 55.7167 278.615 47.5023 286.577 50.6878C292.946 53.2363 307.513 63.5567 314 68.3983" stroke="#4051FD"/>
<path d="M15 78.2595L27.9683 76.0097C33.615 75.8427 35.0952 79.0797 39.1215 79.3348C44.1544 79.6536 53.9805 78.2506 55.6582 79.3348C57.3358 80.4189 64.7653 85.0743 72.1948 84.1177C79.6243 83.1611 91.6074 78.2506 102.632 82.3321C113.656 86.4135 117.731 89.9209 130.433 86.7323C140.594 84.1814 158.303 80.0209 165.888 78.2595C172.101 78.4648 185.947 79.924 191.627 84.1177C197.308 88.3114 208.195 84.6746 212.929 82.3321L236.006 86.7323C240.74 89.1982 252.87 92.6504 263.521 86.7323C276.834 79.3348 279.497 74.543 287.485 76.4012C293.876 77.8878 308.491 83.908 315 86.7323" stroke="#C6CBFE"/>
<path d="M315 27.1645L302.032 22.0221C296.385 21.6405 294.905 29.0392 290.878 29.6223C285.846 30.3511 276.019 27.1443 274.342 29.6223C272.664 32.1003 265.235 42.7412 257.805 40.5547C250.376 38.3682 238.393 27.1443 227.368 36.4733C216.344 45.8022 212.269 53.8193 199.567 46.531C189.406 40.7004 171.697 31.1906 164.112 27.1645C157.899 27.6339 144.053 30.9691 138.373 40.5547C132.692 50.1403 121.805 41.8277 117.071 36.4733L93.9941 46.531C89.2604 52.1673 77.1302 60.058 66.4793 46.531C53.1657 29.6223 50.503 18.6697 42.5148 22.9171C36.1243 26.315 21.5089 40.0755 15 46.531" stroke="#2631A0"/>
<line x1="14.3916" y1="121.993" x2="14.3916" y2="124.975" stroke="black"/>
<line x1="29.4048" y1="121.993" x2="29.4048" y2="124.975" stroke="#8A8A8A"/>
<line x1="89.4609" y1="121.993" x2="89.4609" y2="124.975" stroke="#8A8A8A"/>
<line x1="149.517" y1="121.993" x2="149.517" y2="124.975" stroke="#8A8A8A"/>
<line x1="209.573" y1="121.993" x2="209.573" y2="124.975" stroke="#8A8A8A"/>
<line x1="269.629" y1="121.993" x2="269.629" y2="124.975" stroke="#8A8A8A"/>
<line x1="44.4192" y1="121.993" x2="44.4192" y2="124.975" stroke="#8A8A8A"/>
<line x1="104.475" y1="121.993" x2="104.475" y2="124.975" stroke="#8A8A8A"/>
<line x1="164.531" y1="121.993" x2="164.531" y2="124.975" stroke="#8A8A8A"/>
<line x1="224.588" y1="121.993" x2="224.588" y2="124.975" stroke="#8A8A8A"/>
<line x1="284.642" y1="121.993" x2="284.642" y2="124.975" stroke="#8A8A8A"/>
<line x1="59.4333" y1="121.993" x2="59.4333" y2="124.975" stroke="#8A8A8A"/>
<line x1="119.489" y1="121.993" x2="119.489" y2="124.975" stroke="#8A8A8A"/>
<line x1="179.545" y1="121.993" x2="179.545" y2="124.975" stroke="#8A8A8A"/>
<line x1="239.601" y1="121.993" x2="239.601" y2="124.975" stroke="#8A8A8A"/>
<line x1="299.658" y1="121.993" x2="299.658" y2="124.975" stroke="#8A8A8A"/>
<line x1="74.4468" y1="121.993" x2="74.4468" y2="124.975" stroke="black"/>
<line x1="134.502" y1="121.993" x2="134.502" y2="124.975" stroke="black"/>
<line x1="194.559" y1="121.993" x2="194.559" y2="124.975" stroke="black"/>
<line x1="254.615" y1="121.993" x2="254.615" y2="124.975" stroke="black"/>
<line x1="314.671" y1="121.993" x2="314.671" y2="124.975" stroke="black"/>
<line x1="302.75" y1="125" x2="302.75" y2="12" stroke="#001DFF" stroke-width="0.5"/>
<circle cx="303" cy="6" r="6" fill="#4051FD"/>
<defs>
<linearGradient id="paint0_linear_2113_22921" x1="165" y1="22" x2="165" y2="130" gradientUnits="userSpaceOnUse">
<stop stop-color="#62679F"/>
<stop offset="1" stop-color="#898DB0" stop-opacity="0"/>
</linearGradient>
<linearGradient id="paint1_linear_2113_22921" x1="164.5" y1="50" x2="164.5" y2="128" gradientUnits="userSpaceOnUse">
<stop stop-color="#98A1FF"/>
<stop offset="0.769231" stop-color="#ABB2FF" stop-opacity="0"/>
</linearGradient>
<linearGradient id="paint2_linear_2113_22921" x1="164.5" y1="76" x2="164.5" y2="125" gradientUnits="userSpaceOnUse">
<stop stop-color="#DCDFFF"/>
<stop offset="0.769231" stop-color="white" stop-opacity="0"/>
</linearGradient>
</defs>
</svg>
