<svg width="237" height="337" viewBox="0 0 237 337" fill="none" xmlns="http://www.w3.org/2000/svg">
<rect x="1.5" y="2.01709" width="234" height="332.845" rx="10" stroke="#C6CBFE" stroke-width="3"/>
<line x1="3.51721" y1="171.982" x2="235.5" y2="171.982" stroke="#C6CBFE" stroke-width="3"/>
<circle cx="119.509" cy="168.44" r="38.819" stroke="#C6CBFE" stroke-width="3"/>
<path d="M213.31 31.1808C213.184 50.3183 203.287 68.6233 185.795 82.0691C168.304 95.5148 144.652 103 120.042 102.878C95.4317 102.755 71.8797 95.0355 54.567 81.4168C37.2543 67.798 27.5991 49.3958 27.7253 30.2583" stroke="#C6CBFE" stroke-width="3"/>
<path d="M25.7069 307.715C25.8331 288.578 35.7305 270.273 53.2218 256.827C70.713 243.381 94.3653 235.896 118.975 236.018C143.586 236.141 167.137 243.86 184.45 257.479C201.763 271.098 211.418 289.5 211.292 308.638" stroke="#C6CBFE" stroke-width="3"/>
<path d="M27.7241 32.2757V2.01709" stroke="#C6CBFE" stroke-width="3"/>
<path d="M25.7069 306.62L25.7069 336.879" stroke="#C6CBFE" stroke-width="3"/>
<path d="M213.31 32.2759V0" stroke="#C6CBFE" stroke-width="3"/>
<path d="M211.293 304.603V336.879" stroke="#C6CBFE" stroke-width="3"/>
<line x1="87" y1="335" x2="87" y2="271" stroke="#C6CBFE" stroke-width="3"/>
<line x1="151" y1="335" x2="151" y2="271" stroke="#C6CBFE" stroke-width="3"/>
<line x1="85.5" y1="272.5" x2="152.5" y2="272.5" stroke="#C6CBFE" stroke-width="3"/>
<mask id="path-13-inside-1_2887_17926" fill="white">
<path d="M136.5 274C136.5 269.359 134.656 264.908 131.374 261.626C128.092 258.344 123.641 256.5 119 256.5C114.359 256.5 109.908 258.344 106.626 261.626C103.344 264.908 101.5 269.359 101.5 274L119 274H136.5Z"/>
</mask>
<path d="M136.5 274C136.5 269.359 134.656 264.908 131.374 261.626C128.092 258.344 123.641 256.5 119 256.5C114.359 256.5 109.908 258.344 106.626 261.626C103.344 264.908 101.5 269.359 101.5 274L119 274H136.5Z" stroke="#C6CBFE" stroke-width="6" mask="url(#path-13-inside-1_2887_17926)"/>
<line x1="152" y1="2" x2="152" y2="66" stroke="#C6CBFE" stroke-width="3"/>
<line x1="88" y1="2" x2="88" y2="66" stroke="#C6CBFE" stroke-width="3"/>
<line x1="153.5" y1="64.5" x2="86.5" y2="64.5" stroke="#C6CBFE" stroke-width="3"/>
<mask id="path-17-inside-2_2887_17926" fill="white">
<path d="M102.5 63C102.5 67.6413 104.344 72.0925 107.626 75.3744C110.908 78.6563 115.359 80.5 120 80.5C124.641 80.5 129.092 78.6563 132.374 75.3744C135.656 72.0925 137.5 67.6413 137.5 63L120 63L102.5 63Z"/>
</mask>
<path d="M102.5 63C102.5 67.6413 104.344 72.0925 107.626 75.3744C110.908 78.6563 115.359 80.5 120 80.5C124.641 80.5 129.092 78.6563 132.374 75.3744C135.656 72.0925 137.5 67.6413 137.5 63L120 63L102.5 63Z" stroke="#C6CBFE" stroke-width="6" mask="url(#path-17-inside-2_2887_17926)"/>
</svg>
