<svg width="202" height="358" viewBox="0 0 202 358" fill="none" xmlns="http://www.w3.org/2000/svg">
<rect x="201.087" y="10.0394" width="337.681" height="200.175" rx="7.08735" transform="rotate(90 201.087 10.0394)" stroke="#C6CBFE" stroke-width="1.8253"/>
<rect x="151.804" y="10.0389" width="45.6325" height="101" transform="rotate(90 151.804 10.0389)" stroke="#C6CBFE" stroke-width="1.8253"/>
<rect x="128.684" y="10.0389" width="24.9458" height="54.1506" transform="rotate(90 128.684 10.0389)" stroke="#C6CBFE" stroke-width="1.8253"/>
<rect x="128.684" y="322.774" width="24.9458" height="54.1506" transform="rotate(90 128.684 322.774)" stroke="#C6CBFE" stroke-width="1.8253"/>
<rect x="112.256" y="347.72" width="9.12651" height="21.2952" transform="rotate(90 112.256 347.72)" stroke="#C6CBFE" stroke-width="1.8253"/>
<rect x="112.256" y="0.912659" width="9.12651" height="21.2952" transform="rotate(90 112.256 0.912659)" stroke="#C6CBFE" stroke-width="1.8253"/>
<rect x="151.804" y="302.087" width="45.6325" height="101" transform="rotate(90 151.804 302.087)" stroke="#C6CBFE" stroke-width="1.8253"/>
<line x1="198.955" y1="177.991" x2="4.25607" y2="177.358" stroke="#C6CBFE" stroke-width="1.8253"/>
<circle cx="101" cy="178.88" r="35.5934" transform="rotate(90 101 178.88)" stroke="#C6CBFE" stroke-width="1.8253"/>
</svg>
