<svg width="24" height="24" viewBox="0 0 24 24" fill="none" xmlns="http://www.w3.org/2000/svg">
<path d="M12.7101 7.18442L8.82593 12.0397L13.6812 16.8949L11.2541 22.2374M15.5129 5.69673C16.1357 5.69673 16.733 5.44932 17.1734 5.00891C17.6138 4.56851 17.8613 3.97119 17.8613 3.34837C17.8613 2.72554 17.6138 2.12822 17.1734 1.68782C16.733 1.24742 16.1357 1 15.5129 1C14.8901 1 14.2928 1.24742 13.8524 1.68782C13.412 2.12822 13.1645 2.72554 13.1645 3.34837C13.1645 3.97119 13.412 4.56851 13.8524 5.00891C14.2928 5.44932 14.8901 5.69673 15.5129 5.69673Z" stroke="currentColor" stroke-width="1.5" stroke-linecap="round" stroke-linejoin="round"/>
<path d="M5.42704 8.64158L9.40399 4.75621L12.7105 7.18442L16.1098 11.0686H20.4801M8.34136 15.9239L6.8842 16.8949H3" stroke="currentColor" stroke-width="1.5" stroke-linecap="round" stroke-linejoin="round"/>
</svg>
