<svg width="20" height="20" viewBox="0 0 20 20" fill="none" xmlns="http://www.w3.org/2000/svg">
<path d="M15.1849 7.89478V6.98811C15.1849 6.60036 15.0292 6.22847 14.751 5.9546C14.4717 5.67994 14.0956 5.52617 13.7038 5.52649H6.29553C5.9038 5.52617 5.52765 5.67994 5.24833 5.9546C4.97013 6.22847 4.81445 6.60036 4.81445 6.98811V7.8955" stroke="#000215" stroke-width="1.5" stroke-linecap="round" stroke-linejoin="round"/>
<path d="M6.29638 5.52647V4.79566C6.29638 4.40791 6.45278 4.03602 6.73025 3.76142C7.00976 3.48659 7.38619 3.33281 7.77818 3.33331H12.2221C12.6141 3.33281 12.9906 3.48659 13.2701 3.76142C13.5476 4.0353 13.7039 4.40791 13.7039 4.79566V5.52647M14.2668 7.71962H5.7335C4.40737 7.71962 3.3335 8.77908 3.3335 10.0879V14.2984C3.3335 15.6065 4.40737 16.6666 5.7335 16.6666H14.2668C15.593 16.6666 16.6668 15.6065 16.6668 14.2984V10.0879C16.6668 8.7798 15.593 7.71962 14.2668 7.71962Z" stroke="#000215" stroke-width="1.5" stroke-linecap="round" stroke-linejoin="round"/>
<path d="M7.03711 10.6436V11.3744C7.03711 11.7622 7.19279 12.1341 7.47098 12.4079C7.74846 12.6818 8.1254 12.836 8.51819 12.836H11.4818C11.8735 12.8364 12.2497 12.6826 12.529 12.4079C12.8072 12.1341 12.9629 11.7622 12.9629 11.3744V10.6436" stroke="#000215" stroke-width="1.5" stroke-linecap="round" stroke-linejoin="round"/>
</svg>
