<svg width="24" height="24" viewBox="0 0 24 24" fill="none" xmlns="http://www.w3.org/2000/svg">
<path d="M3.62939 15.7816C3.62939 15.9079 3.65424 16.0331 3.70264 16.1498C3.75103 16.2664 3.82224 16.3721 3.91162 16.4613L3.9126 16.4623C4.28031 16.8376 4.89455 16.8376 5.26221 16.4701L11.5903 10.1429L11.6821 10.0502L11.7749 10.1429L18.103 16.4613C18.4796 16.8378 19.0859 16.8378 19.4624 16.4613C19.8389 16.0848 19.8389 15.4784 19.4624 15.1019L12.2095 7.84898C12.141 7.7804 12.0597 7.726 11.9702 7.68883C11.8805 7.65163 11.7841 7.63219 11.687 7.63219C11.5899 7.63219 11.4935 7.65163 11.4038 7.68883C11.3143 7.72601 11.233 7.7804 11.1646 7.84898L3.91162 15.1019C3.82226 15.191 3.75103 15.2969 3.70264 15.4134C3.65424 15.5301 3.6294 15.6553 3.62939 15.7816Z" fill="currentColor" stroke="white" stroke-width="0.26183"/>
</svg>
