<svg width="20" height="20" viewBox="0 0 17 20" fill="none" xmlns="http://www.w3.org/2000/svg">
<path d="M11.1776 4.66394C11.6966 4.66394 12.1944 4.45776 12.5614 4.09076C12.9284 3.72376 13.1346 3.22599 13.1346 2.70697C13.1346 2.18795 12.9284 1.69019 12.5614 1.32318C12.1944 0.95618 11.6966 0.75 11.1776 0.75C10.6586 0.75 10.1608 0.95618 9.79379 1.32318C9.42679 1.69019 9.22061 2.18795 9.22061 2.70697C9.22061 3.22599 9.42679 3.72376 9.79379 4.09076C10.1608 4.45776 10.6586 4.66394 11.1776 4.66394ZM8.84193 5.90368L5.6051 9.94972L9.65114 13.9958L7.62861 18.4479" fill="currentColor"/>
<path d="M8.84193 5.90368L5.6051 9.94972L9.65114 13.9958L7.62861 18.4479M11.1776 4.66394C11.6966 4.66394 12.1944 4.45776 12.5614 4.09076C12.9284 3.72376 13.1346 3.22599 13.1346 2.70697C13.1346 2.18795 12.9284 1.69019 12.5614 1.32318C12.1944 0.95618 11.6966 0.75 11.1776 0.75C10.6586 0.75 10.1608 0.95618 9.79379 1.32318C9.42679 1.69019 9.22061 2.18795 9.22061 2.70697C9.22061 3.22599 9.42679 3.72376 9.79379 4.09076C10.1608 4.45776 10.6586 4.66394 11.1776 4.66394Z" stroke="currentColor" stroke-width="1.5" stroke-linecap="round" stroke-linejoin="round"/>
<path d="M2.77253 7.11794L6.08666 3.88013L8.84208 5.90364L11.6748 9.14047H15.3167M5.20113 13.1865L3.98683 13.9957H0.75" stroke="currentColor" stroke-width="1.5" stroke-linecap="round" stroke-linejoin="round"/>
</svg>
