<svg width="24" height="24" viewBox="0 0 24 24" fill="none" xmlns="http://www.w3.org/2000/svg">
<path d="M12 2.15039C13.2899 2.15039 14.5704 2.40588 15.7725 2.89844C16.9638 3.39074 18.0475 4.1198 18.9639 5.03613C19.7658 5.83807 20.4244 6.76787 20.9062 7.78613L21.1016 8.22754C21.5941 9.42963 21.8496 10.7101 21.8496 12C21.8496 14.4472 20.9408 16.8075 19.3018 18.6104L18.9639 18.9639C18.0504 19.8799 16.9646 20.6063 15.7695 21.1016C14.5746 21.5968 13.2935 21.8509 12 21.8496C10.8674 21.848 9.74462 21.6532 8.67969 21.2744L8.22754 21.1016C7.18296 20.6674 6.22242 20.0567 5.38672 19.2979L5.03613 18.9639C4.12014 18.0504 3.39369 16.9646 2.89844 15.7695C2.40324 14.5746 2.14905 13.2935 2.15039 12L2.16211 11.5117C2.27452 9.24045 3.16848 7.07231 4.69824 5.38965L5.03613 5.03613C5.95247 4.1198 7.03616 3.39074 8.22754 2.89844C9.42437 2.40597 10.7058 2.15218 12 2.15039ZM12 3.84961C9.84045 3.84961 7.76266 4.70609 6.23438 6.23438H6.2334C5.47704 6.99168 4.8777 7.89077 4.46875 8.87988C4.05973 9.86922 3.84878 10.9295 3.84961 12L3.86035 12.4043C3.96006 14.4175 4.80171 16.333 6.23438 17.7656C7.76266 19.2939 9.84045 20.1504 12 20.1504C14.1596 20.1504 16.2373 19.2939 17.7656 17.7656C19.2939 16.2373 20.1504 14.1596 20.1504 12C20.1504 9.84045 19.2939 7.76267 17.7656 6.23438V6.2334C17.0083 5.47704 16.1092 4.8777 15.1201 4.46875C14.2543 4.1108 13.3342 3.90458 12.4004 3.85938L12 3.84961ZM11.6797 8.0625C11.8044 7.78933 12.1932 7.78922 12.3174 8.0625L12.6465 8.79004C13.162 9.92684 14.0732 10.838 15.21 11.3535L15.9404 11.6846C16.2134 11.8086 16.2139 12.1961 15.9414 12.3213L15.1875 12.667C14.0644 13.1828 13.1642 14.0856 12.6514 15.21L12.3174 15.9434C12.193 16.216 11.8057 16.2166 11.6807 15.9443L11.3379 15.1982C10.8249 14.081 9.9291 13.1843 8.8125 12.6699L8.05469 12.3203C7.78292 12.1948 7.78402 11.8086 8.05664 11.6846L8.79004 11.3506C9.92057 10.8364 10.8271 9.93066 11.3428 8.80078L11.6797 8.0625Z" fill="currentColor" stroke="#FBFBFB" stroke-width="0.3"/>
</svg>
