<svg width="24" height="24" viewBox="0 0 24 24" xmlns="http://www.w3.org/2000/svg">
  <!-- Outer circle (ring by default) -->
  <circle class="aura-circle" cx="12" cy="12" r="9" fill="none" stroke="currentColor" stroke-width="2"/>
  <!-- Inner star (same shape from your original path) -->
  <path class="aura-star" d="M11.6797 8.0625C11.8044 7.78933 12.1932 7.78922 12.3174 8.0625L12.6465 8.79004C13.162 9.92684 14.0732 10.838 15.21 11.3535L15.9404 11.6846C16.2134 11.8086 16.2139 12.1961 15.9414 12.3213L15.1875 12.667C14.0644 13.1828 13.1642 14.0856 12.6514 15.21L12.3174 15.9434C12.193 16.216 11.8057 16.2166 11.6807 15.9443L11.3379 15.1982C10.8249 14.081 9.9291 13.1843 8.8125 12.6699L8.05469 12.3203C7.78292 12.1948 7.78402 11.8086 8.05664 11.6846L8.79004 11.3506C9.92057 10.8364 10.8271 9.93066 11.3428 8.80078L11.6797 8.0625Z" fill="currentColor"/>
</svg>
