<svg width="24" height="24" viewBox="0 0 24 24" fill="none" xmlns="http://www.w3.org/2000/svg">
<path d="M15.2803 4.13086C15.4066 4.13086 15.5318 4.1557 15.6484 4.2041C15.765 4.2525 15.8708 4.3237 15.96 4.41309L15.9609 4.41406C16.3363 4.78177 16.3363 5.39601 15.9688 5.76367L9.6416 12.0918L9.54883 12.1836L9.6416 12.2764L15.96 18.6045C16.3365 18.981 16.3365 19.5873 15.96 19.9639C15.5834 20.3403 14.9771 20.3404 14.6006 19.9639L7.34766 12.7109C7.27907 12.6425 7.22468 12.5612 7.1875 12.4717C7.1503 12.382 7.13086 12.2856 7.13086 12.1885C7.13086 12.0914 7.1503 11.9949 7.1875 11.9053C7.22468 11.8158 7.27907 11.7345 7.34766 11.666L14.6006 4.41309C14.6897 4.32373 14.7955 4.2525 14.9121 4.2041C15.0287 4.15571 15.154 4.13087 15.2803 4.13086Z" fill="black" stroke="white" stroke-width="0.26183"/>
</svg>
