<svg width="20" height="20" viewBox="0 0 20 20" fill="none" xmlns="http://www.w3.org/2000/svg">
<path d="M1.97139 14.6049C4.52399 19.0285 10.1804 20.5425 14.6049 17.9899C16.3394 16.9917 17.7017 15.4557 18.4856 13.6144C19.0506 12.294 19.2999 10.86 19.2139 9.42634C19.1278 7.99269 18.7087 6.59884 17.9899 5.35546C17.2724 4.11149 16.2749 3.05188 15.0764 2.26073C13.878 1.46958 12.5116 0.968679 11.0858 0.797779C9.09932 0.555954 7.0881 0.967614 5.35636 1.97049C0.932783 4.52494 -0.583053 10.1813 1.97139 14.6049Z" stroke="currentColor" stroke-width="1.46053"/>
<path d="M14.5589 17.9094C14.5589 17.9094 13.6895 11.8137 11.8306 8.59337C9.97161 5.37303 5.40283 2.05188 5.40283 2.05188" stroke="currentColor" stroke-width="1.46053" stroke-linecap="round"/>
<path d="M19.1035 10.5171C14.0991 9.41926 7.26077 14.0019 5.89014 18.136M14.0631 1.85026C12.6869 5.93811 5.97985 10.4542 0.999512 9.47383" stroke="currentColor" stroke-width="1.46053" stroke-linecap="round"/>
</svg>
