<svg width="40" height="40" viewBox="0 0 40 40" fill="none" xmlns="http://www.w3.org/2000/svg">
<path d="M11.5 25.1509H28.5C28.7254 25.1509 28.9412 25.2405 29.1006 25.3999C29.26 25.5593 29.3496 25.7751 29.3496 26.0005C29.3496 26.2259 29.26 26.4417 29.1006 26.6011C28.9412 26.7605 28.7254 26.8501 28.5 26.8501H11.5C11.2746 26.8501 11.0588 26.7605 10.8994 26.6011C10.74 26.4417 10.6504 26.2259 10.6504 26.0005C10.6504 25.7751 10.74 25.5593 10.8994 25.3999C11.0588 25.2405 11.2746 25.1509 11.5 25.1509ZM11.5 19.1499H28.5C28.7254 19.1499 28.9412 19.2395 29.1006 19.3989C29.26 19.5583 29.3496 19.7741 29.3496 19.9995C29.3496 20.2249 29.26 20.4407 29.1006 20.6001C28.9412 20.7595 28.7254 20.8491 28.5 20.8491H11.5C11.2746 20.8491 11.0588 20.7595 10.8994 20.6001C10.74 20.4407 10.6504 20.2249 10.6504 19.9995C10.6504 19.7741 10.74 19.5583 10.8994 19.3989C11.0588 19.2395 11.2746 19.1499 11.5 19.1499ZM11.5 13.1499H28.5C28.7254 13.1499 28.9412 13.2395 29.1006 13.3989C29.26 13.5583 29.3496 13.7741 29.3496 13.9995C29.3496 14.2249 29.26 14.4407 29.1006 14.6001C28.9412 14.7595 28.7254 14.8491 28.5 14.8491H11.5C11.2746 14.8491 11.0588 14.7595 10.8994 14.6001C10.74 14.4407 10.6504 14.2249 10.6504 13.9995L10.6543 13.9155C10.6736 13.7209 10.7599 13.5384 10.8994 13.3989C11.0588 13.2395 11.2746 13.1499 11.5 13.1499Z" fill="#000215" stroke="#FBFBFB" stroke-width="0.3"/>
</svg>
