<svg width="25" height="24" viewBox="0 0 25 24" fill="none" xmlns="http://www.w3.org/2000/svg">
<path d="M17.5 12C17.5 12.9889 17.2068 13.9556 16.6574 14.7779C16.1079 15.6001 15.327 16.241 14.4134 16.6194C13.4998 16.9978 12.4945 17.0969 11.5246 16.9039C10.5546 16.711 9.66373 16.2348 8.96447 15.5355C8.26521 14.8363 7.789 13.9454 7.59608 12.9755C7.40315 12.0055 7.50217 11.0002 7.8806 10.0866C8.25904 9.17295 8.89991 8.39206 9.72215 7.84265C10.5444 7.29324 11.5111 7 12.5 7" stroke="#4051FD" stroke-width="1.5" stroke-linecap="round"/>
<path d="M14.5 2.2C13.8533 2.068 13.1867 2.00133 12.5 2C6.977 2 2.5 6.477 2.5 12C2.5 17.523 6.977 22 12.5 22C18.023 22 22.5 17.523 22.5 12C22.4987 11.3133 22.432 10.6467 22.3 10" stroke="#4051FD" stroke-width="1.5" stroke-linecap="round"/>
<path d="M12.53 11.962L17.083 7.40899M20.24 4.34499L19.687 2.35699C19.6649 2.28126 19.6245 2.21214 19.5693 2.15576C19.5141 2.09937 19.4459 2.05746 19.3706 2.03373C19.2954 2.01 19.2155 2.00518 19.1379 2.01971C19.0604 2.03423 18.9876 2.06764 18.926 2.11699C17.49 3.28999 15.926 4.87099 17.203 7.36399C19.777 8.56399 21.247 6.94599 22.373 5.58499C22.424 5.52231 22.4585 5.44791 22.4734 5.36854C22.4884 5.28917 22.4833 5.20732 22.4587 5.13039C22.4341 5.05346 22.3907 4.98388 22.3324 4.92794C22.2742 4.872 22.2029 4.83146 22.125 4.80999L20.24 4.34499Z" stroke="#4051FD" stroke-width="1.5" stroke-linecap="round" stroke-linejoin="round"/>
</svg>
