<svg width="24" height="24" viewBox="0 0 24 24" fill="none" xmlns="http://www.w3.org/2000/svg">
<path d="M18.459 6.24646C18.7653 6.21314 19.0726 6.30088 19.3154 6.4906L19.3164 6.49158C19.4345 6.583 19.5333 6.69736 19.6064 6.82751C19.6796 6.95762 19.7264 7.10109 19.7432 7.24939C19.7599 7.39763 19.7463 7.54771 19.7041 7.6908C19.6618 7.834 19.5917 7.9679 19.4971 8.08337H19.4961L11.9707 17.3304C11.8668 17.4565 11.7376 17.5595 11.5918 17.6332C11.4459 17.7069 11.2862 17.7493 11.123 17.7582C10.9598 17.767 10.7965 17.7424 10.6436 17.6849C10.5288 17.6418 10.4219 17.581 10.3262 17.5052L10.2344 17.4252L4.58984 11.8802L4.50293 11.7885C4.139 11.3435 4.16712 10.6923 4.58984 10.2777C5.01554 9.86023 5.68887 9.8318 6.14551 10.1937L6.2373 10.2767V10.2777L10.7812 14.722L10.9775 14.9135L11.1504 14.7006L17.6963 6.67419L17.8193 6.52283C17.9989 6.36969 18.2213 6.27233 18.459 6.24646Z" fill="currentColor" stroke="#FBFBFB" stroke-width="0.5"/>
</svg>
