<svg width="36" height="36" viewBox="0 0 36 36" fill="none" xmlns="http://www.w3.org/2000/svg">
<path d="M17.5026 8.50244C14.8513 8.50555 12.3096 9.57844 10.4349 11.4857C8.56017 13.393 7.50562 15.979 7.50256 18.6764V24.1546C7.50256 24.7773 7.74569 25.3745 8.17847 25.8148C8.61125 26.2551 9.19822 26.5024 9.81026 26.5024C10.3005 26.5017 10.7779 26.3428 11.1737 26.0485C12.342 25.1847 14.3872 24.1546 17.5026 24.1546C20.6179 24.1546 22.6631 25.1837 23.8304 26.0476C24.1743 26.304 24.5813 26.4586 25.0063 26.494C25.4312 26.5295 25.8575 26.4445 26.2379 26.2484C26.6182 26.0523 26.9378 25.7529 27.161 25.3833C27.3842 25.0137 27.5025 24.5884 27.5026 24.1546V18.6764C27.4995 15.979 26.445 13.393 24.5703 11.4857C22.6956 9.57844 20.1538 8.50555 17.5026 8.50244ZM25.9641 18.6764V19.5441C24.7371 18.7717 23.4129 18.1721 22.0276 17.7617C21.7299 15.0631 20.7759 12.4826 19.2516 10.2535C21.1489 10.6639 22.8505 11.7241 24.0721 13.257C25.2938 14.79 25.9616 16.7029 25.9641 18.6764ZM17.5026 10.4854C19.0385 12.4919 20.0447 14.8647 20.4256 17.3782C18.4913 17.0222 16.5099 17.0222 14.5756 17.3782C14.961 14.8653 15.9682 12.4933 17.5026 10.4854ZM15.7535 10.2535C14.2291 12.4829 13.275 15.0638 12.9776 17.7627C11.5922 18.173 10.268 18.7726 9.04103 19.5451V18.6764C9.04351 16.7029 9.71133 14.79 10.933 13.257C12.1546 11.7241 13.8562 10.6639 15.7535 10.2535ZM25.5468 24.8502C25.4189 24.9173 25.275 24.9465 25.1315 24.9346C24.9881 24.9227 24.8508 24.87 24.7353 24.7827C23.3833 23.7829 21.0314 22.5894 17.5026 22.5894C13.9737 22.5894 11.6218 23.7829 10.2699 24.7827C10.1544 24.87 10.0171 24.9227 9.8736 24.9346C9.73014 24.9465 9.58626 24.9173 9.45833 24.8502C9.33105 24.7865 9.22422 24.6873 9.15032 24.5641C9.07643 24.4409 9.03852 24.2989 9.04103 24.1546V21.4223C11.5133 19.6363 14.4704 18.6769 17.5026 18.6769C20.5347 18.6769 23.4918 19.6363 25.9641 21.4223V24.1546C25.9666 24.2989 25.9287 24.4409 25.8548 24.5641C25.7809 24.6873 25.6741 24.7865 25.5468 24.8502Z" fill="#4051FD"/>
</svg>
