<svg width="24" height="24" viewBox="0 0 24 24" fill="none" xmlns="http://www.w3.org/2000/svg">
<path d="M12 2.14961C12.5091 2.14961 13.0096 2.18934 13.498 2.26387C13.9459 2.33244 14.2229 2.78769 14.1045 3.24629C13.988 3.69687 13.5216 3.97645 13.0371 3.91426C12.1459 3.79992 11.2391 3.83351 10.3545 4.01582C9.13627 4.26696 7.99205 4.79405 7.00879 5.55586C6.02543 6.31777 5.22909 7.29428 4.68164 8.41133C4.13419 9.5284 3.84929 10.7562 3.84961 12.0002C3.84964 13.3588 4.18097 14.6664 4.80762 15.8371L5.13086 16.4397L4.4873 19.3332L4.43652 19.5637L4.66699 19.5129L7.55859 18.8693L8.16309 19.1936C9.34346 19.8241 10.6618 20.1521 12 20.1496C13.1523 20.1496 14.2918 19.9054 15.3428 19.4328C16.3935 18.9603 17.3321 18.2703 18.0967 17.4084C18.8614 16.5464 19.4344 15.5316 19.7783 14.4318C20.0204 13.6576 20.1458 12.8535 20.1504 12.0461C20.1532 11.5571 20.4924 11.1314 20.9551 11.0764C21.4255 11.0205 21.8402 11.3566 21.8486 11.8098C21.8498 11.873 21.8496 11.9366 21.8496 12.0002C21.8495 17.4403 17.4401 21.8498 12 21.8498L11.6963 21.8459C10.1831 21.8012 8.69887 21.4065 7.36133 20.6916L7.3125 20.6652L7.25879 20.6779L4.42188 21.3078C3.38597 21.538 2.46235 20.6142 2.69238 19.5783L3.32227 16.7414L3.33496 16.6877L3.30859 16.6379C2.54601 15.2111 2.14812 13.618 2.15039 12.0002L2.16309 11.4934C2.42677 6.28868 6.72977 2.14962 12 2.14961ZM20 1.15352C20.071 1.15352 20.1403 1.17443 20.1992 1.21407C20.2582 1.25381 20.3044 1.31026 20.3311 1.37617V1.37813L20.585 1.98555V1.98653C21.024 3.05703 21.857 3.9189 22.9121 4.39375H22.9131L23.6299 4.71407C23.6949 4.74458 23.7504 4.79319 23.7891 4.85371C23.8279 4.91467 23.8486 4.98553 23.8486 5.05782C23.8486 5.13033 23.8281 5.20179 23.7891 5.26289C23.7504 5.32337 23.6948 5.37105 23.6299 5.40157L22.8721 5.74043C21.8424 6.20169 21.0226 7.03186 20.5752 8.06758L20.3291 8.63301L20.3047 8.68184C20.2777 8.7266 20.2411 8.76492 20.1973 8.79414C20.1388 8.8331 20.0703 8.85371 20 8.85371C19.9297 8.85371 19.8612 8.8331 19.8027 8.79414C19.7589 8.76492 19.7223 8.7266 19.6953 8.68184L19.6709 8.63301L19.4238 8.06758C18.9768 7.03203 18.1571 6.20204 17.1279 5.74043V5.73946L16.3682 5.40157C16.3031 5.37123 16.2478 5.32333 16.209 5.26289C16.1698 5.20179 16.1485 5.13038 16.1484 5.05782C16.1484 4.98515 16.1698 4.91393 16.209 4.85274C16.2479 4.79205 16.3028 4.7435 16.3682 4.71309L17.0859 4.39278H17.0869C18.142 3.91862 18.9744 3.05739 19.4141 1.9875L19.6689 1.37715V1.37617C19.6956 1.31026 19.7418 1.25381 19.8008 1.21407C19.8597 1.17443 19.929 1.15352 20 1.15352Z" fill="currentColor" stroke="#FBFBFB" stroke-width="0.3"/>
</svg>
