<svg width="24" height="24" viewBox="0 0 24 24" fill="none" xmlns="http://www.w3.org/2000/svg">
<path d="M14.7556 11.884C15.3474 11.6972 15.9722 11.6375 16.5886 11.7092H16.5896C18.6699 11.934 20.3432 13.7136 20.4705 15.8156C20.5291 16.7828 20.2648 17.663 19.7947 18.4172L19.7527 18.4846L19.8093 18.5412L21.2332 19.9514C21.4107 20.1292 21.5491 20.4165 21.5955 20.7062C21.642 20.9979 21.592 21.2661 21.4294 21.4289C21.2561 21.6022 21.0052 21.6926 20.7498 21.6926C20.4944 21.6925 20.2433 21.6021 20.0701 21.4289L18.532 19.8107L18.4753 19.7512L18.406 19.7961C17.7314 20.2262 16.9299 20.4797 16.0701 20.4797C13.6455 20.4797 11.6806 18.5151 11.6804 16.0803C11.6804 15.4596 11.8112 14.8458 12.0652 14.2795C12.3192 13.7132 12.6905 13.2069 13.1541 12.7941C13.6176 12.3813 14.1637 12.0709 14.7556 11.884ZM16.0798 13.4797C15.3905 13.4797 14.7295 13.754 14.2419 14.2414C13.7543 14.729 13.4802 15.3907 13.4802 16.0803C13.4803 16.7697 13.7544 17.4306 14.2419 17.9182C14.7295 18.4057 15.3904 18.6798 16.0798 18.6799C16.7694 18.6799 17.4311 18.4057 17.9187 17.9182C18.4061 17.4306 18.6803 16.7696 18.6804 16.0803C18.6804 15.3907 18.4063 14.729 17.9187 14.2414C17.4311 13.7538 16.7694 13.4797 16.0798 13.4797ZM13.0134 6.95428C13.164 6.9516 13.3128 6.98682 13.446 7.05682C13.5794 7.12695 13.6929 7.23001 13.7761 7.35565H13.7771L15.5378 9.98846C14.8784 10.0263 14.245 10.1728 13.658 10.4074L13.1531 9.64471L13.0671 9.51385L12.9851 9.64764L9.90503 14.6574C9.83097 14.7782 9.72888 14.8802 9.60815 14.9543C9.48748 15.0283 9.35083 15.0728 9.20972 15.0842C9.06858 15.0955 8.92664 15.0735 8.79565 15.0197C8.69733 14.9793 8.60699 14.9222 8.52905 14.8508L8.45581 14.7746L6.33569 12.3049L6.24683 12.2014L6.17554 12.3166L3.11499 17.217C2.83541 17.6582 2.24081 17.7747 1.81812 17.4689C1.46373 17.2066 1.34766 16.7315 1.54175 16.34L1.58472 16.2629L5.36499 10.2131C5.68917 9.70041 6.41811 9.64608 6.81421 10.1047L8.92456 12.5646L9.01343 12.6691L9.08472 12.5519L12.2654 7.38202C12.344 7.25356 12.454 7.14726 12.5847 7.07245C12.7155 6.99764 12.8628 6.95699 13.0134 6.95428ZM20.8845 2.95331C21.1634 2.51261 21.7573 2.40467 22.1707 2.71014L22.1716 2.71112C22.5585 2.99006 22.6574 3.52091 22.406 3.9162H22.405L18.2693 10.4553C17.6913 10.2121 17.0746 10.0567 16.4324 10.0031L20.8845 2.95331Z" fill="black" stroke="white" stroke-width="0.2"/>
</svg>
