<svg width="25" height="24" viewBox="0 0 25 24" fill="none" xmlns="http://www.w3.org/2000/svg">
<path d="M15.2556 11.884C15.8474 11.6972 16.4722 11.6375 17.0886 11.7092H17.0896C19.1699 11.934 20.8432 13.7136 20.9705 15.8156C21.0291 16.7828 20.7648 17.663 20.2947 18.4172L20.2527 18.4846L20.3093 18.5412L21.7332 19.9514C21.9107 20.1292 22.0491 20.4165 22.0955 20.7062C22.142 20.9979 22.092 21.2661 21.9294 21.4289C21.7561 21.6022 21.5052 21.6926 21.2498 21.6926C20.9944 21.6925 20.7433 21.6021 20.5701 21.4289L19.032 19.8107L18.9753 19.7512L18.906 19.7961C18.2314 20.2262 17.4299 20.4797 16.5701 20.4797C14.1455 20.4797 12.1806 18.5151 12.1804 16.0803C12.1804 15.4596 12.3112 14.8458 12.5652 14.2795C12.8192 13.7132 13.1905 13.2069 13.6541 12.7941C14.1176 12.3813 14.6637 12.0709 15.2556 11.884ZM16.5798 13.4797C15.8905 13.4797 15.2295 13.754 14.7419 14.2414C14.2543 14.729 13.9802 15.3907 13.9802 16.0803C13.9803 16.7697 14.2544 17.4306 14.7419 17.9182C15.2295 18.4057 15.8904 18.6798 16.5798 18.6799C17.2694 18.6799 17.9311 18.4057 18.4187 17.9182C18.9061 17.4306 19.1803 16.7696 19.1804 16.0803C19.1804 15.3907 18.9063 14.729 18.4187 14.2414C17.9311 13.7538 17.2694 13.4797 16.5798 13.4797ZM13.5134 6.95428C13.664 6.9516 13.8128 6.98682 13.946 7.05682C14.0794 7.12695 14.1929 7.23001 14.2761 7.35565H14.2771L16.0378 9.98846C15.3784 10.0263 14.745 10.1728 14.158 10.4074L13.6531 9.64471L13.5671 9.51385L13.4851 9.64764L10.405 14.6574C10.331 14.7782 10.2289 14.8802 10.1082 14.9543C9.98748 15.0283 9.85083 15.0728 9.70972 15.0842C9.56858 15.0955 9.42664 15.0735 9.29565 15.0197C9.19733 14.9793 9.10699 14.9222 9.02905 14.8508L8.95581 14.7746L6.83569 12.3049L6.74683 12.2014L6.67554 12.3166L3.61499 17.217C3.33541 17.6582 2.74081 17.7747 2.31812 17.4689C1.96373 17.2066 1.84766 16.7315 2.04175 16.34L2.08472 16.2629L5.86499 10.2131C6.18917 9.70041 6.91811 9.64608 7.31421 10.1047L9.42456 12.5646L9.51343 12.6691L9.58472 12.5519L12.7654 7.38202C12.844 7.25356 12.954 7.14726 13.0847 7.07245C13.2155 6.99764 13.3628 6.95699 13.5134 6.95428ZM21.3845 2.95331C21.6634 2.51261 22.2573 2.40467 22.6707 2.71014L22.6716 2.71112C23.0585 2.99006 23.1574 3.52091 22.906 3.9162H22.905L18.7693 10.4553C18.1913 10.2121 17.5746 10.0567 16.9324 10.0031L21.3845 2.95331Z" fill="#4051FD" stroke="#F0F0F3" stroke-width="0.2"/>
</svg>
