<svg width="24" height="24" viewBox="0 0 24 24" fill="none" xmlns="http://www.w3.org/2000/svg">
<path d="M19.7449 8.59561C19.7449 8.46933 19.72 8.34408 19.6716 8.22745C19.6232 8.11085 19.552 8.00508 19.4626 7.91592L19.4617 7.91495C19.094 7.53958 18.4797 7.53959 18.1121 7.90714L11.7839 14.2343L11.6921 14.3271L11.5994 14.2343L5.27124 7.91592C4.89471 7.53942 4.28839 7.5394 3.91186 7.91592C3.53541 8.29245 3.53538 8.89879 3.91186 9.2753L11.1648 16.5282C11.2333 16.5968 11.3146 16.6512 11.4041 16.6884C11.4937 16.7256 11.5902 16.745 11.6873 16.745C11.7843 16.745 11.8808 16.7256 11.9705 16.6884C12.06 16.6512 12.1412 16.5968 12.2097 16.5282L19.4626 9.2753C19.552 9.18616 19.6232 9.08034 19.6716 8.96378C19.72 8.84715 19.7449 8.72187 19.7449 8.59561Z" fill="black" stroke="white" stroke-width="0.26183"/>
</svg>
