<svg width="24" height="24" viewBox="0 0 24 24" fill="none" xmlns="http://www.w3.org/2000/svg">
<path d="M19.6139 17.3488C19.7989 17.3488 19.9764 17.2753 20.1072 17.1445C20.238 17.0136 20.3115 16.8362 20.3115 16.6511C20.3115 16.4661 20.238 16.2887 20.1072 16.1578C19.9764 16.027 19.7989 15.9535 19.6139 15.9535V17.3488ZM13.3767 20.6167C13.3463 20.704 13.3336 20.7964 13.3393 20.8886C13.3449 20.9808 13.3688 21.071 13.4096 21.1539C13.4504 21.2368 13.5073 21.3108 13.5769 21.3716C13.6465 21.4323 13.7275 21.4787 13.8151 21.5079C13.9028 21.5371 13.9954 21.5485 14.0875 21.5417C14.1797 21.5348 14.2695 21.5097 14.3519 21.4678C14.4343 21.4259 14.5075 21.3681 14.5673 21.2977C14.6271 21.2273 14.6724 21.1457 14.7004 21.0576L13.3767 20.6167ZM4.55627 15.9535C4.37123 15.9535 4.19378 16.027 4.06294 16.1578C3.9321 16.2887 3.8586 16.4661 3.8586 16.6511C3.8586 16.8362 3.9321 17.0136 4.06294 17.1445C4.19378 17.2753 4.37123 17.3488 4.55627 17.3488V15.9535ZM9.4688 21.0576C9.52907 21.2309 9.65515 21.3734 9.81974 21.4544C9.98433 21.5354 10.1742 21.5483 10.3482 21.4903C10.5223 21.4323 10.6665 21.3082 10.7496 21.1447C10.8328 20.9812 10.8482 20.7915 10.7925 20.6167L9.4688 21.0576ZM6.00556 5.91631C5.9577 5.73756 5.84079 5.58516 5.68056 5.49261C5.52033 5.40006 5.32989 5.37496 5.15115 5.42282C4.9724 5.47068 4.82 5.58759 4.72745 5.74782C4.6349 5.90806 4.6098 6.09849 4.65766 6.27724L6.00556 5.91631ZM2.3507 11.9898C2.19638 12.0919 2.08895 12.2512 2.05206 12.4325C2.01516 12.6138 2.05181 12.8024 2.15395 12.9567C2.25609 13.1111 2.41535 13.2185 2.59669 13.2554C2.77803 13.2923 2.96661 13.2556 3.12092 13.1535L2.3507 11.9898ZM19.3804 6.27817C19.4041 6.18966 19.4101 6.09736 19.3981 6.00652C19.3862 5.91568 19.3564 5.82809 19.3106 5.74875C19.2648 5.66941 19.2038 5.59988 19.1311 5.54411C19.0584 5.48835 18.9754 5.44745 18.8869 5.42375C18.7082 5.37589 18.5177 5.40099 18.3575 5.49354C18.2781 5.53936 18.2086 5.60037 18.1528 5.67306C18.0971 5.74576 18.0562 5.82873 18.0325 5.91724L19.3804 6.27817ZM20.9171 13.1535C21.0714 13.2556 21.26 13.2923 21.4414 13.2554C21.6227 13.2185 21.782 13.1111 21.8841 12.9567C21.9862 12.8024 22.0229 12.6138 21.986 12.4325C21.9491 12.2512 21.8417 12.0919 21.6873 11.9898L20.9171 13.1535ZM15.8046 4.40562C15.953 4.29793 16.0531 4.13614 16.0831 3.95525C16.1131 3.77436 16.0708 3.58892 15.9651 3.43903C15.8595 3.28915 15.6991 3.18687 15.5187 3.15433C15.3382 3.12179 15.1522 3.1616 15.0009 3.26516L15.8046 4.40562ZM8.85206 3.06702C8.77862 3.00959 8.69442 2.96746 8.60443 2.94313C8.51443 2.91879 8.42048 2.91274 8.3281 2.92532C8.23573 2.93791 8.14682 2.96888 8.06662 3.01641C7.98642 3.06394 7.91656 3.12705 7.86116 3.20204C7.80576 3.27702 7.76596 3.36234 7.74409 3.45296C7.72222 3.54359 7.71874 3.63768 7.73385 3.72967C7.74896 3.82166 7.78235 3.9097 7.83205 3.98857C7.88175 4.06744 7.94676 4.13555 8.02323 4.18887L8.85206 3.06702ZM20.5832 12C20.5832 16.7535 16.7348 20.6046 11.9897 20.6046V22C17.5069 22 21.9785 17.5218 21.9785 12H20.5832ZM11.9897 20.6046C7.2437 20.6046 3.39534 16.7535 3.39534 12H2C2 17.5218 6.47161 22 11.9897 22V20.6046ZM3.39534 12C3.39534 7.24653 7.2437 3.39539 11.9897 3.39539V2.00005C6.47161 2.00005 2 6.47817 2 12H3.39534ZM11.9897 3.39539C16.7339 3.39539 20.5832 7.24653 20.5832 12H21.9785C21.9785 6.47817 17.5069 2.00005 11.9897 2.00005V3.39539ZM12.1293 10.1954L13.8381 11.5014L14.6855 10.3935L12.9767 9.08652L12.1293 10.1954ZM13.919 11.7554L13.2474 13.9293L14.5813 14.3405L15.252 12.1665L13.919 11.7554ZM13.026 14.093H10.9516V15.4884H13.026V14.093ZM10.7311 13.9293L10.0595 11.7554L8.72648 12.1665L9.39717 14.3405L10.7311 13.9293ZM10.1395 11.5014L11.8493 10.1944L11.0009 9.08652L9.29299 10.3935L10.1395 11.5014ZM19.6139 15.9535H18.1116V17.3488H19.6139V15.9535ZM13.9237 18.9749L13.3767 20.6167L14.7004 21.0576L15.2464 19.4158L13.9237 18.9749ZM18.1116 15.9535C17.4809 15.9535 16.9478 15.9525 16.5153 16.0018C16.0651 16.053 15.6511 16.1656 15.2762 16.4363L16.093 17.5683C16.2046 17.4874 16.3571 17.4242 16.6743 17.3879C17.0092 17.3507 17.4483 17.3488 18.1116 17.3488V15.9535ZM15.2464 19.4158C15.4567 18.7869 15.5953 18.3702 15.7385 18.0642C15.8725 17.7739 15.9813 17.6483 16.093 17.5683L15.2762 16.4363C14.9004 16.7079 14.6632 17.0642 14.4725 17.4763C14.2883 17.8716 14.1227 18.3767 13.9237 18.9749L15.2464 19.4158ZM4.55627 17.3488H6.05952V15.9535H4.55627V17.3488ZM8.92369 19.4158L9.4688 21.0576L10.7925 20.6167L10.2465 18.9749L8.92369 19.4158ZM6.05952 17.3488C6.72277 17.3488 7.15998 17.3497 7.49579 17.3879C7.81207 17.4251 7.96555 17.4874 8.07718 17.5683L8.89392 16.4363C8.51811 16.1665 8.10416 16.053 7.65393 16.0018C7.22137 15.9525 6.68928 15.9535 6.05952 15.9535V17.3488ZM10.2465 18.9749C10.0465 18.3767 9.88089 17.8716 9.69671 17.4763C9.50601 17.0651 9.2688 16.7079 8.89392 16.4363L8.07718 17.5683C8.18881 17.6483 8.29671 17.773 8.4316 18.0642C8.57392 18.3711 8.71346 18.7869 8.92369 19.4158L10.2465 18.9749ZM4.65766 6.27724L5.0465 7.72932L6.3944 7.36839L6.00556 5.91631L4.65766 6.27724ZM3.79348 11.0363L2.35163 11.9888L3.12092 13.1535L4.56278 12.1991L3.79348 11.0363ZM5.0465 7.72932C5.21766 8.37025 5.33022 8.79443 5.38045 9.12839C5.42696 9.44466 5.40557 9.61024 5.35719 9.73862L6.6623 10.2335C6.82602 9.80001 6.82695 9.37211 6.75998 8.92281C6.69579 8.49211 6.55719 7.97769 6.3944 7.36839L5.0465 7.72932ZM4.56278 12.1991C5.08929 11.8512 5.53301 11.5591 5.86696 11.2791C6.21486 10.9879 6.49765 10.6661 6.6623 10.2335L5.35719 9.73862C5.30882 9.86699 5.2158 10.0047 4.97022 10.2102C4.71162 10.427 4.34697 10.6707 3.79348 11.0363L4.56278 12.1991ZM18.0325 5.91724L17.6436 7.36932L18.9915 7.72932L19.3804 6.27631L18.0325 5.91724ZM19.4743 12.1991L20.9171 13.1535L21.6873 11.9898L20.2446 11.0354L19.4743 12.1991ZM17.6436 7.36932C17.4809 7.97955 17.3423 8.49211 17.2781 8.92281C17.2111 9.37211 17.212 9.80094 17.3757 10.2335L18.6809 9.73862C18.6325 9.61024 18.6111 9.44559 18.6576 9.12839C18.7078 8.7935 18.8204 8.37025 18.9915 7.72932L17.6436 7.36932ZM20.2446 11.0354C19.692 10.6698 19.3264 10.427 19.0678 10.2102C18.8222 10.0056 18.7292 9.86699 18.6809 9.73862L17.3757 10.2335C17.5404 10.6661 17.8232 10.9879 18.1711 11.2791C18.505 11.5591 18.9488 11.8521 19.4753 12.2L20.2446 11.0354ZM15.0009 3.26516L13.773 4.13213L14.5767 5.27166L15.8046 4.40562L15.0009 3.26516ZM10.2428 4.09306L8.85113 3.06795L8.02323 4.18887L9.41392 5.21584L10.2428 4.09306ZM13.773 4.13213C13.2316 4.51352 12.8716 4.76561 12.5758 4.92747C12.2948 5.08096 12.1339 5.11724 11.9972 5.11631L11.9813 6.51165C12.4446 6.5163 12.8465 6.36933 13.2455 6.15165C13.6269 5.94235 14.0623 5.63538 14.5767 5.27166L13.773 4.13213ZM9.41392 5.21584C9.92182 5.59073 10.3488 5.907 10.7255 6.12468C11.119 6.35072 11.519 6.50607 11.9813 6.51165L11.9972 5.11631C11.8595 5.11445 11.6995 5.07445 11.4223 4.91538C11.1293 4.74701 10.7758 4.48655 10.2428 4.09306L9.41392 5.21584ZM13.8381 11.5014C13.8765 11.5308 13.9048 11.5714 13.919 11.6177L15.252 11.2056C15.1521 10.8826 14.9541 10.5988 14.6855 10.3935L13.8381 11.5014ZM13.919 11.6177C13.9329 11.6625 13.9329 11.7105 13.919 11.7554L15.252 12.1665C15.3487 11.8535 15.3487 11.5186 15.252 11.2056L13.919 11.6177ZM17.7609 9.34141L14.319 10.7674L14.852 12.0567L18.2957 10.6307L17.7609 9.34141ZM12.9767 9.08652C12.693 8.86956 12.3459 8.75189 11.9888 8.75164V10.147C12.0398 10.1466 12.0893 10.1637 12.1293 10.1954L12.9767 9.08652ZM11.9888 8.75164C11.6418 8.75164 11.292 8.86327 11.0009 9.08652L11.8493 10.1944C11.89 10.1639 11.9388 10.1475 11.9897 10.1479L11.9888 8.75164ZM12.6865 9.44931V5.81398H11.2911V9.44931H12.6865ZM13.2474 13.9293C13.2336 13.9745 13.2063 14.0144 13.1693 14.0437L14.0325 15.1395C14.2923 14.9351 14.4838 14.6564 14.5813 14.3405L13.2474 13.9293ZM13.1693 14.0437C13.1286 14.0755 13.0776 14.0928 13.026 14.093V15.4884C13.3999 15.4884 13.7525 15.36 14.0325 15.1395L13.1693 14.0437ZM16.213 16.546L14.1292 14.1349L13.0734 15.0484L15.1571 17.4586L16.213 16.546ZM10.9516 14.093C10.9 14.0928 10.8499 14.0755 10.8093 14.0437L9.94601 15.1395C10.2251 15.36 10.5776 15.4884 10.9516 15.4884V14.093ZM10.8093 14.0437C10.7722 14.0144 10.7449 13.9745 10.7311 13.9293L9.39717 14.3405C9.49764 14.6651 9.69206 14.9395 9.94601 15.1395L10.8093 14.0437ZM9.03253 17.4325L10.9265 15.0214L9.8288 14.16L7.93579 16.5702L9.03253 17.4325ZM10.0595 11.7554C10.0456 11.7105 10.0456 11.6625 10.0595 11.6177L8.72648 11.2047C8.62979 11.5177 8.62979 11.8535 8.72648 12.1665L10.0595 11.7554ZM10.0595 11.6177C10.0737 11.5714 10.102 11.5299 10.1404 11.5005L9.29299 10.3935C9.02425 10.599 8.82624 10.8814 8.72648 11.2047L10.0595 11.6177ZM9.66415 10.7684L6.28091 9.34327L5.73859 10.6288L9.12183 12.0549L9.66415 10.7684Z" fill="currentColor"/>
</svg>
