<svg xmlns="http://www.w3.org/2000/svg" viewBox="0 0 24 24" width="16" height="16" aria-hidden="true">
  <title>Google</title>
  <desc>Multi-color Google G logo simplified</desc>
  <path fill="#EA4335" d="M12 10.2v3.9h5.4c-.24 1.4-1.64 4.1-5.4 4.1-3.25 0-5.9-2.7-5.9-6.1s2.65-6.1 5.9-6.1c1.85 0 3.09.8 3.79 1.5l2.6-2.5C16.77 3.8 14.6 2.7 12 2.7 6.99 2.7 2.9 6.79 2.9 12s4.09 9.3 9.1 9.3c5.26 0 8.71-3.7 8.71-8.9 0-.6-.06-1.04-.14-1.5H12z"/>
  <path fill="#34A853" d="M6.69 14.3a5.7 5.7 0 0 1 0-4.6L3.5 6.9A9.19 9.19 0 0 0 2.9 12c0 2.13.73 4.09 1.96 5.63l2.83-2.33z"/>
  <path fill="#FBBC05" d="M12 21.3c2.6 0 4.77-.86 6.36-2.32l-2.94-2.4c-.79.54-1.81.92-3.42.92-2.59 0-4.79-1.73-5.6-4.2l-2.82 2.33C5.22 19.51 8.35 21.3 12 21.3z"/>
  <path fill="#4285F4" d="M20.81 12c0-.5-.05-.87-.14-1.3H12v3.9h5.39c-.11.9-.72 2.06-2.08 2.93l2.94 2.4c1.72-1.59 2.56-3.94 2.56-7.93z"/>
</svg>
