<svg width="24" height="24" viewBox="0 0 24 24" fill="none" xmlns="http://www.w3.org/2000/svg">
<path d="M21 19.12V12.387C21 11.8445 20.8896 11.3076 20.6756 10.809C20.4616 10.3105 20.1483 9.86069 19.755 9.48701L13.378 3.43001C13.0063 3.07689 12.5132 2.88 12.0005 2.88C11.4878 2.88 10.9947 3.07689 10.623 3.43001L4.245 9.48701C3.85165 9.86069 3.53844 10.3105 3.3244 10.809C3.11037 11.3076 3 11.8445 3 12.387V19.12C3 19.6504 3.21071 20.1591 3.58579 20.5342C3.96086 20.9093 4.46957 21.12 5 21.12H19C19.5304 21.12 20.0391 20.9093 20.4142 20.5342C20.7893 20.1591 21 19.6504 21 19.12Z" stroke="#000215" stroke-width="1.5" stroke-linecap="round" stroke-linejoin="round"/>
</svg>
