<svg width="24" height="24" viewBox="0 0 24 24" fill="none" xmlns="http://www.w3.org/2000/svg">
<path d="M18.2471 2.93262C19.6665 2.93281 20.8172 4.08352 20.8174 5.50293V18.2471C20.8172 19.6664 19.6664 20.8172 18.2471 20.8174H5.50293C4.08352 20.8172 2.93281 19.6665 2.93262 18.2471V5.50293C2.93277 4.08349 4.08349 2.93277 5.50293 2.93262H18.2471ZM5.50293 4.43262C4.91192 4.43277 4.43277 4.91192 4.43262 5.50293V15.5264L8.61426 11.3447L8.6709 11.293C8.96546 11.0529 9.40027 11.0702 9.6748 11.3447L17.6475 19.3174H18.2471C18.838 19.3172 19.3172 18.838 19.3174 18.2471V5.50293C19.3172 4.91195 18.838 4.43281 18.2471 4.43262H5.50293ZM4.43262 17.6465V18.2471C4.43281 18.838 4.91195 19.3172 5.50293 19.3174H15.5254L9.14355 12.9355L4.43262 17.6465ZM14.6055 6.57324C16.0249 6.57324 17.1754 7.72421 17.1758 9.14355C17.1758 10.5632 16.0251 11.7139 14.6055 11.7139C13.186 11.7137 12.0352 10.5631 12.0352 9.14355C12.0355 7.72431 13.1862 6.5734 14.6055 6.57324ZM14.6055 8.07324C14.0146 8.0734 13.5355 8.55274 13.5352 9.14355C13.5352 9.73468 14.0144 10.2137 14.6055 10.2139C15.1967 10.2139 15.6758 9.73478 15.6758 9.14355C15.6754 8.55264 15.1965 8.07324 14.6055 8.07324Z" fill="#000215"/>
</svg>
