<svg width="12" height="12" viewBox="0 0 12 12" fill="none" xmlns="http://www.w3.org/2000/svg">
<path d="M3.20024 2.38001C3.9454 1.64975 4.94864 1.24307 5.99196 1.24834C7.03527 1.25361 8.03436 1.6704 8.7721 2.40815C9.50984 3.14589 9.92664 4.14498 9.93191 5.18829C9.93718 6.23161 9.5305 7.23485 8.80024 7.98001L6.70724 10.073C6.51971 10.2605 6.26541 10.3658 6.00024 10.3658C5.73508 10.3658 5.48077 10.2605 5.29324 10.073L3.20024 7.98001C2.45769 7.23737 2.04053 6.23019 2.04053 5.18001C2.04053 4.12982 2.45769 3.12264 3.20024 2.38001Z" stroke="#727481" stroke-linejoin="round"/>
<path d="M6 6.67993C6.82843 6.67993 7.5 6.00836 7.5 5.17993C7.5 4.3515 6.82843 3.67993 6 3.67993C5.17157 3.67993 4.5 4.3515 4.5 5.17993C4.5 6.00836 5.17157 6.67993 6 6.67993Z" stroke="#727481" stroke-linecap="round" stroke-linejoin="round"/>
</svg>
