<svg width="32" height="32" viewBox="0 0 32 32" fill="none" xmlns="http://www.w3.org/2000/svg">
<path d="M26 16C26.0017 17.3129 25.7442 18.6133 25.2424 19.8265C24.7406 21.0398 24.0043 22.1421 23.0757 23.0703C22.1466 23.9995 21.0435 24.7366 19.8294 25.2393C18.6154 25.742 17.3141 26.0005 16.0001 26C14.5858 26.0031 13.1871 25.7046 11.8974 25.1243L7.7169 25.7427C7.50933 25.7766 7.29663 25.7593 7.09727 25.6923C6.89791 25.6253 6.71791 25.5107 6.57292 25.3583C6.42792 25.206 6.32231 25.0205 6.26527 24.8181C6.20822 24.6157 6.20145 24.4024 6.24556 24.1967L6.8261 19.9557C6.27388 18.7104 5.99236 17.3621 6.00016 16C5.99848 14.6871 6.25592 13.3867 6.75773 12.1734C7.25954 10.9602 7.99585 9.85789 8.92446 8.92973C9.85352 8.00045 10.9566 7.26339 12.1707 6.76069C13.3848 6.25799 14.686 5.9995 16.0001 6C18.6537 6.00018 21.1987 7.05395 23.0757 8.92973C24.0038 9.85824 24.7398 10.9606 25.2416 12.1738C25.7434 13.387 26.0011 14.6871 26 16Z" stroke="#000215" stroke-width="1.5" stroke-linecap="round" stroke-linejoin="round"/>
</svg>
