<svg width="32" height="32" viewBox="0 0 32 32" fill="none" xmlns="http://www.w3.org/2000/svg">
<path d="M13.5654 26.76C14.2641 27.564 15.1201 28 16.0001 28C16.8801 28 17.7361 27.564 18.4348 26.76" stroke="#000215" stroke-width="1.5" stroke-linecap="round"/>
<path d="M8.8038 10.7097C9.00013 8.9383 9.84288 7.30155 11.1707 6.11276C12.4985 4.92397 14.2182 4.26667 16.0004 4.26667C17.7826 4.26667 19.5023 4.92397 20.8301 6.11276C22.1579 7.30155 23.0007 8.9383 23.197 10.7097L23.5237 13.6469L23.5314 13.7208C23.6988 15.1778 24.1733 16.5827 24.9236 17.8428L24.9625 17.9076L25.7104 19.1559C26.3909 20.2887 26.7305 20.8552 26.6566 21.3205C26.6078 21.6294 26.449 21.9102 26.2094 22.1112C25.8478 22.4146 25.1867 22.4145 23.8659 22.4145H8.13495C6.8128 22.4145 6.15173 22.4146 5.79138 22.1125C5.55107 21.9114 5.39174 21.6301 5.34289 21.3205C5.2703 20.8552 5.60991 20.2887 6.28913 19.1559L7.03964 17.9063L7.07853 17.8415C7.8282 16.5817 8.30224 15.1772 8.46937 13.7208L8.47715 13.6469L8.8038 10.7097Z" stroke="#000215" stroke-width="1.5"/>
</svg>
