<svg width="20" height="20" viewBox="0 0 12 16" fill="none" xmlns="http://www.w3.org/2000/svg">
<path d="M2.75 4.5C2.94891 4.5 3.13968 4.42098 3.28033 4.28033C3.42098 4.13968 3.5 3.94891 3.5 3.75C3.5 3.55109 3.42098 3.36032 3.28033 3.21967C3.13968 3.07902 2.94891 3 2.75 3C2.55109 3 2.36032 3.07902 2.21967 3.21967C2.07902 3.36032 2 3.55109 2 3.75C2 3.94891 2.07902 4.13968 2.21967 4.28033C2.36032 4.42098 2.55109 4.5 2.75 4.5ZM3.5 6.75C3.5 6.94891 3.42098 7.13968 3.28033 7.28033C3.13968 7.42098 2.94891 7.5 2.75 7.5C2.55109 7.5 2.36032 7.42098 2.21967 7.28033C2.07902 7.13968 2 6.94891 2 6.75C2 6.55109 2.07902 6.36032 2.21967 6.21967C2.36032 6.07902 2.55109 6 2.75 6C2.94891 6 3.13968 6.07902 3.28033 6.21967C3.42098 6.36032 3.5 6.55109 3.5 6.75ZM2.75 10.5C2.84849 10.5 2.94602 10.4806 3.03701 10.4429C3.12801 10.4052 3.21069 10.35 3.28033 10.2803C3.34997 10.2107 3.40522 10.128 3.44291 10.037C3.4806 9.94602 3.5 9.84849 3.5 9.75C3.5 9.65151 3.4806 9.55398 3.44291 9.46299C3.40522 9.37199 3.34997 9.28931 3.28033 9.21967C3.21069 9.15003 3.12801 9.09478 3.03701 9.05709C2.94602 9.0194 2.84849 9 2.75 9C2.55109 9 2.36032 9.07902 2.21967 9.21967C2.07902 9.36032 2 9.55109 2 9.75C2 9.94891 2.07902 10.1397 2.21967 10.2803C2.36032 10.421 2.55109 10.5 2.75 10.5ZM6.5 3.75C6.5 3.94891 6.42098 4.13968 6.28033 4.28033C6.13968 4.42098 5.94891 4.5 5.75 4.5C5.55109 4.5 5.36032 4.42098 5.21967 4.28033C5.07902 4.13968 5 3.94891 5 3.75C5 3.55109 5.07902 3.36032 5.21967 3.21967C5.36032 3.07902 5.55109 3 5.75 3C5.94891 3 6.13968 3.07902 6.28033 3.21967C6.42098 3.36032 6.5 3.55109 6.5 3.75ZM5.75 7.5C5.94891 7.5 6.13968 7.42098 6.28033 7.28033C6.42098 7.13968 6.5 6.94891 6.5 6.75C6.5 6.55109 6.42098 6.36032 6.28033 6.21967C6.13968 6.07902 5.94891 6 5.75 6C5.55109 6 5.36032 6.07902 5.21967 6.21967C5.07902 6.36032 5 6.55109 5 6.75C5 6.94891 5.07902 7.13968 5.21967 7.28033C5.36032 7.42098 5.55109 7.5 5.75 7.5ZM6.5 9.75C6.5 9.94891 6.42098 10.1397 6.28033 10.2803C6.13968 10.421 5.94891 10.5 5.75 10.5C5.55109 10.5 5.36032 10.421 5.21967 10.2803C5.07902 10.1397 5 9.94891 5 9.75C5 9.55109 5.07902 9.36032 5.21967 9.21967C5.36032 9.07902 5.55109 9 5.75 9C5.94891 9 6.13968 9.07902 6.28033 9.21967C6.42098 9.36032 6.5 9.55109 6.5 9.75ZM8.75 10.5C8.84849 10.5 8.94602 10.4806 9.03701 10.4429C9.12801 10.4052 9.21069 10.35 9.28033 10.2803C9.34997 10.2107 9.40522 10.128 9.44291 10.037C9.4806 9.94602 9.5 9.84849 9.5 9.75C9.5 9.65151 9.4806 9.55398 9.44291 9.46299C9.40522 9.37199 9.34997 9.28931 9.28033 9.21967C9.21069 9.15003 9.12801 9.09478 9.03701 9.05709C8.94602 9.0194 8.84849 9 8.75 9C8.55109 9 8.36032 9.07902 8.21967 9.21967C8.07902 9.36032 8 9.55109 8 9.75C8 9.94891 8.07902 10.1397 8.21967 10.2803C8.36032 10.421 8.55109 10.5 8.75 10.5ZM0.5 16C0.367392 16 0.240215 15.9473 0.146447 15.8536C0.0526785 15.7598 0 15.6326 0 15.5V1.5C0 1.10218 0.158035 0.720644 0.43934 0.43934C0.720644 0.158035 1.10218 0 1.5 0H7.5C7.89782 0 8.27936 0.158035 8.56066 0.43934C8.84196 0.720644 9 1.10218 9 1.5V6H10.5C10.8978 6 11.2794 6.15804 11.5607 6.43934C11.842 6.72064 12 7.10218 12 7.5V15.5C12 15.6326 11.9473 15.7598 11.8536 15.8536C11.7598 15.9473 11.6326 16 11.5 16H0.5ZM1 1.5V15H3V12.5C3 12.3674 3.05268 12.2402 3.14645 12.1464C3.24021 12.0527 3.36739 12 3.5 12H8.5C8.63261 12 8.75979 12.0527 8.85355 12.1464C8.94732 12.2402 9 12.3674 9 12.5V15H11V7.5C11 7.36739 10.9473 7.24021 10.8536 7.14645C10.7598 7.05268 10.6326 7 10.5 7H8.5C8.36739 7 8.24021 6.94732 8.14645 6.85355C8.05268 6.75979 8 6.63261 8 6.5V1.5C8 1.36739 7.94732 1.24021 7.85355 1.14645C7.75979 1.05268 7.63261 1 7.5 1H1.5C1.36739 1 1.24021 1.05268 1.14645 1.14645C1.05268 1.24021 1 1.36739 1 1.5ZM8 13H6.5V15H8V13ZM5.5 13H4V15H5.5V13Z" fill="currentColor"/>
</svg>
