<svg width="40" height="40" viewBox="0 0 40 40" fill="none" xmlns="http://www.w3.org/2000/svg">
<path d="M6.66675 29.9999C6.66675 28.2318 7.36913 26.5361 8.61937 25.2859C9.86961 24.0356 11.5653 23.3333 13.3334 23.3333H26.6667C28.4349 23.3333 30.1305 24.0356 31.3808 25.2859C32.631 26.5361 33.3334 28.2318 33.3334 29.9999C33.3334 30.884 32.9822 31.7318 32.3571 32.3569C31.732 32.9821 30.8841 33.3333 30.0001 33.3333H10.0001C9.11603 33.3333 8.26818 32.9821 7.64306 32.3569C7.01794 31.7318 6.66675 30.884 6.66675 29.9999Z" stroke="currentColor" stroke-width="3.33333" stroke-linejoin="round"/>
<path d="M20.0001 16.6667C22.7615 16.6667 25.0001 14.4282 25.0001 11.6667C25.0001 8.90532 22.7615 6.66675 20.0001 6.66675C17.2386 6.66675 15.0001 8.90532 15.0001 11.6667C15.0001 14.4282 17.2386 16.6667 20.0001 16.6667Z" stroke="currentColor" stroke-width="3.33333"/>
</svg>
