<svg width="24" height="24" viewBox="0 0 24 24" fill="none" xmlns="http://www.w3.org/2000/svg">
<path d="M16.3037 5.56543H17.7002C18.6855 5.56556 19.6305 5.9576 20.3271 6.6543C21.0238 7.35108 21.415 8.29595 21.415 9.28125V14.8633C21.415 15.8486 21.0238 16.7935 20.3271 17.4902C19.6305 18.1869 18.6855 18.579 17.7002 18.5791H14.7861V20.4453C14.7863 20.5593 14.7527 20.6708 14.6895 20.7656C14.6263 20.8604 14.5369 20.9349 14.4316 20.9785C14.3264 21.0221 14.2104 21.033 14.0986 21.0107C13.987 20.9885 13.8842 20.934 13.8037 20.8535H13.8027L11.0117 18.0615C10.9583 18.0081 10.9157 17.9448 10.8867 17.875C10.8577 17.8051 10.8428 17.73 10.8428 17.6543C10.8428 17.5786 10.8577 17.5035 10.8867 17.4336C10.9157 17.3638 10.9583 17.3005 11.0117 17.2471L13.8037 14.4551C13.8842 14.3746 13.987 14.3201 14.0986 14.2979C14.2104 14.2756 14.3264 14.2865 14.4316 14.3301C14.5369 14.3737 14.6263 14.4482 14.6895 14.543C14.7527 14.6378 14.7863 14.7493 14.7861 14.8633V16.7295H17.7002C18.7303 16.7292 19.5664 15.8935 19.5664 14.8633V9.28125C19.5664 8.25105 18.7303 7.4153 17.7002 7.41504H16.3037C16.0587 7.41491 15.8237 7.31683 15.6504 7.14355C15.4771 6.97022 15.3799 6.73531 15.3799 6.49023C15.3799 6.24503 15.477 6.00932 15.6504 5.83594C15.8236 5.66277 16.0588 5.56556 16.3037 5.56543ZM9.43945 3.13281C9.55116 3.15514 9.65392 3.21036 9.73438 3.29102L12.5254 6.08203C12.579 6.1355 12.6214 6.19959 12.6504 6.26953C12.6794 6.33946 12.6943 6.41452 12.6943 6.49023C12.6943 6.5659 12.6794 6.64105 12.6504 6.71094C12.6214 6.78073 12.5789 6.84407 12.5254 6.89746L9.73438 9.68848C9.65395 9.7691 9.55111 9.82434 9.43945 9.84668C9.32779 9.86895 9.21165 9.85797 9.10645 9.81445C9.00113 9.7708 8.9109 9.69642 8.84766 9.60156C8.78444 9.50672 8.75077 9.39523 8.75098 9.28125V7.41504H5.83789C4.80754 7.41504 3.9707 8.25089 3.9707 9.28125V14.8633C3.97072 15.8936 4.80754 16.7295 5.83789 16.7295H7.2334C7.47854 16.7295 7.71337 16.8276 7.88672 17.001C8.06006 17.1743 8.1582 17.4091 8.1582 17.6543C8.1582 17.8995 8.06005 18.1342 7.88672 18.3076C7.71337 18.481 7.47854 18.5791 7.2334 18.5791H5.83789C4.85245 18.5791 3.90677 18.187 3.20996 17.4902C2.5134 16.7935 2.12208 15.8485 2.12207 14.8633V9.28125C2.12207 8.29603 2.51343 7.35106 3.20996 6.6543C3.90677 5.95749 4.85245 5.56543 5.83789 5.56543H8.75098V3.69922C8.75077 3.58533 8.78454 3.4737 8.84766 3.37891C8.9109 3.28405 9.00113 3.20967 9.10645 3.16602C9.21168 3.12246 9.32775 3.11054 9.43945 3.13281Z" fill="currentColor" stroke="#FBFBFB" stroke-width="0.244218"/>
</svg>
