<svg width="20" height="20" viewBox="0 0 19 19" fill="none" xmlns="http://www.w3.org/2000/svg">
<path d="M4.91742 10.7498C4.55366 10.7503 4.19439 10.8302 3.8647 10.9839C3.53502 11.1377 3.24284 11.3615 3.00858 11.6398C2.77432 11.918 2.60361 12.2441 2.50836 12.5952C2.41311 12.9462 2.39563 13.3139 2.45713 13.6724C2.51862 14.0309 2.65762 14.3717 2.86442 14.671C3.07121 14.9702 3.34082 15.2208 3.65444 15.4051C3.96805 15.5894 4.3181 15.7031 4.68017 15.7381C5.04224 15.7732 5.4076 15.7288 5.75075 15.6081" stroke="currentColor" stroke-width="1.5" stroke-linecap="round" stroke-linejoin="round"/>
<path d="M2.63741 12.0872C2.13871 11.8471 1.70765 11.4866 1.38312 11.0382C1.05859 10.5899 0.850813 10.0678 0.778541 9.51902C0.706268 8.97028 0.771774 8.41218 0.969147 7.89508C1.16652 7.37799 1.48955 6.91818 1.90908 6.55716M1.93408 6.48966C1.66078 6.0807 1.54099 5.58823 1.59593 5.09944C1.65086 4.61064 1.87697 4.15704 2.23422 3.81895C2.59148 3.48085 3.05684 3.28007 3.54791 3.25213C4.03899 3.2242 4.52412 3.37092 4.91741 3.66633M5.11574 3.72049C4.9828 3.43803 4.91504 3.1293 4.91747 2.81713C4.9199 2.50496 4.99245 2.19732 5.12977 1.91696C5.26709 1.6366 5.46566 1.39068 5.7108 1.19739C5.95594 1.00409 6.24139 0.86836 6.54605 0.800225C6.8507 0.73209 7.16678 0.733293 7.47091 0.803746C7.77503 0.874199 8.05944 1.0121 8.30311 1.20726C8.54677 1.40241 8.74346 1.64983 8.87864 1.93123C9.01381 2.21263 9.08402 2.52081 9.08408 2.83299V15.7497C9.08408 16.1917 8.90848 16.6156 8.59592 16.9282C8.28336 17.2407 7.85944 17.4163 7.41741 17.4163C6.97538 17.4163 6.55146 17.2407 6.2389 16.9282C5.92634 16.6156 5.75074 16.1917 5.75074 15.7497M9.08408 4.91633C9.08408 5.57937 9.34747 6.21525 9.81631 6.68409C10.2851 7.15293 10.921 7.41633 11.5841 7.41633M13.2507 10.7497C13.6145 10.7502 13.9738 10.8301 14.3035 10.9838C14.6331 11.1376 14.9253 11.3614 15.1596 11.6397C15.3938 11.9179 15.5646 12.244 15.6598 12.5951C15.755 12.9461 15.7725 13.3138 15.711 13.6723C15.6495 14.0308 15.5105 14.3716 15.3037 14.6709C15.0969 14.9701 14.8273 15.2207 14.5137 15.405C14.2001 15.5893 13.8501 15.703 13.488 15.738C13.1259 15.7731 12.7606 15.7287 12.4174 15.608" stroke="currentColor" stroke-width="1.5" stroke-linecap="round" stroke-linejoin="round"/>
<path d="M15.5308 12.0872C16.0295 11.8471 16.4605 11.4866 16.7851 11.0382C17.1096 10.5899 17.3174 10.0678 17.3896 9.51902C17.4619 8.97028 17.3964 8.41218 17.199 7.89508C17.0017 7.37799 16.6786 6.91818 16.2591 6.55716M16.2341 6.48966C16.5074 6.0807 16.6272 5.58823 16.5723 5.09944C16.5173 4.61064 16.2912 4.15704 15.934 3.81895C15.5767 3.48085 15.1113 3.28007 14.6203 3.25213C14.1292 3.2242 13.6441 3.37092 13.2508 3.66633M9.08411 2.83299C9.08416 2.52081 9.15437 2.21263 9.28954 1.93123C9.42472 1.64983 9.62141 1.40241 9.86508 1.20726C10.1087 1.0121 10.3931 0.874199 10.6973 0.803746C11.0014 0.733293 11.3175 0.73209 11.6221 0.800225C11.9268 0.86836 12.2122 1.00409 12.4574 1.19739C12.7025 1.39068 12.9011 1.6366 13.0384 1.91696C13.1757 2.19732 13.2483 2.50496 13.2507 2.81713C13.2531 3.1293 13.1854 3.43803 13.0524 3.72049M12.4174 15.7497C12.4174 16.1917 12.2418 16.6156 11.9293 16.9282C11.6167 17.2407 11.1928 17.4163 10.7508 17.4163C10.3087 17.4163 9.88482 17.2407 9.57226 16.9282C9.2597 16.6156 9.08411 16.1917 9.08411 15.7497" stroke="currentColor" stroke-width="1.5" stroke-linecap="round" stroke-linejoin="round"/>
</svg>
