<svg width="24" height="24" viewBox="0 0 24 24" fill="none" xmlns="http://www.w3.org/2000/svg">
<path d="M21 21L16.657 16.657M16.657 16.657C17.3998 15.9141 17.9891 15.0322 18.3912 14.0615C18.7932 13.0909 19.0002 12.0506 19.0002 11C19.0002 9.94939 18.7932 8.90908 18.3912 7.93845C17.9891 6.96782 17.3998 6.08588 16.657 5.34299C15.9141 4.6001 15.0321 4.01081 14.0615 3.60877C13.0909 3.20672 12.0506 2.99979 11 2.99979C9.94936 2.99979 8.90905 3.20672 7.93842 3.60877C6.96779 4.01081 6.08585 4.6001 5.34296 5.34299C3.84263 6.84332 2.99976 8.87821 2.99976 11C2.99976 13.1218 3.84263 15.1567 5.34296 16.657C6.84329 18.1573 8.87818 19.0002 11 19.0002C13.1217 19.0002 15.1566 18.1573 16.657 16.657Z" stroke="#4051FD" stroke-width="1.5" stroke-linecap="round" stroke-linejoin="round"/>
<path d="M13.657 7.1715C13.2859 6.79963 12.845 6.50471 12.3596 6.30367C11.8742 6.10264 11.3539 5.99944 10.8285 6C10.3031 5.99944 9.78281 6.10264 9.29742 6.30367C8.81203 6.50471 8.37112 6.79963 8 7.1715" stroke="#4051FD" stroke-width="1.5" stroke-linecap="round" stroke-linejoin="round"/>
</svg>
