<svg width="16" height="16" viewBox="0 0 16 16" fill="none" xmlns="http://www.w3.org/2000/svg">
<path d="M14.4715 7.52852L9.13816 2.19519C9.04493 2.10198 8.92615 2.03851 8.79685 2.0128C8.66755 1.98709 8.53353 2.00029 8.41173 2.05074C8.28993 2.10119 8.18582 2.18661 8.11256 2.29622C8.03931 2.40583 8.00019 2.53469 8.00016 2.66652V5.02986C6.17902 5.19839 4.48631 6.04043 3.25329 7.39121C2.02027 8.74199 1.33568 10.5043 1.3335 12.3332V13.3332C1.3336 13.4716 1.37677 13.6065 1.45701 13.7192C1.53726 13.832 1.6506 13.917 1.78131 13.9624C1.91203 14.0078 2.05365 14.0115 2.18652 13.9728C2.31939 13.9341 2.43692 13.855 2.52283 13.7465C3.17606 12.9699 3.97746 12.3313 4.88023 11.8678C5.783 11.4043 6.76906 11.1254 7.78083 11.0472C7.81416 11.0432 7.8975 11.0365 8.00016 11.0299V13.3332C8.00019 13.465 8.03931 13.5939 8.11256 13.7035C8.18582 13.8131 8.28993 13.8985 8.41173 13.949C8.53353 13.9994 8.66755 14.0126 8.79685 13.9869C8.92615 13.9612 9.04493 13.8977 9.13816 13.8045L14.4715 8.47119C14.5965 8.34617 14.6667 8.17663 14.6667 7.99986C14.6667 7.82308 14.5965 7.65354 14.4715 7.52852ZM9.3335 11.7239V10.3332C9.3335 10.1564 9.26326 9.98681 9.13823 9.86179C9.01321 9.73676 8.84364 9.66652 8.66683 9.66652C8.49683 9.66652 7.80283 9.69986 7.6255 9.72319C5.82869 9.88856 4.11835 10.5712 2.7015 11.6885C2.86233 10.2181 3.55986 8.85875 4.66053 7.87063C5.76121 6.88251 7.18768 6.33509 8.66683 6.33319C8.84364 6.33319 9.01321 6.26295 9.13823 6.13793C9.26326 6.0129 9.3335 5.84334 9.3335 5.66652V4.27586L13.0575 7.99986L9.3335 11.7239Z" fill="black"/>
</svg>
