<svg width="24" height="24" viewBox="0 0 24 24" fill="none" xmlns="http://www.w3.org/2000/svg">
	<path d="M4.74 18.1C4.60745 18.1 4.5 17.9925 4.5 17.86V4.75C4.5 4.33579 4.16421 4 3.75 4C3.33579 4 3 4.33579 3 4.75V18.4C3.06684 18.7388 3.24947 19.0439 3.51658 19.2628C3.78369 19.4818 4.11863 19.601 4.464 19.6H20.25C20.6642 19.6 21 19.2642 21 18.85C21 18.4358 20.6642 18.1 20.25 18.1H4.74Z" fill="currentColor" />
	<path d="M6.18018 12.55C6.18018 12.1358 6.51596 11.8 6.93018 11.8C7.34439 11.8 7.68018 12.1358 7.68018 12.55V15.73C7.68018 16.1442 7.34439 16.48 6.93018 16.48C6.51596 16.48 6.18018 16.1442 6.18018 15.73V12.55ZM10.0922 7.75601C10.0922 7.33848 10.4306 7.00001 10.8482 7.00001C11.2657 7.00001 11.6042 7.33849 11.6042 7.75601V15.724C11.6042 16.1415 11.2657 16.48 10.8482 16.48C10.4306 16.48 10.0922 16.1415 10.0922 15.724V7.75601ZM14.0162 10.15C14.0162 9.7358 14.352 9.40001 14.7662 9.40001C15.1804 9.40001 15.5162 9.7358 15.5162 10.15V15.73C15.5162 16.1442 15.1804 16.48 14.7662 16.48C14.352 16.48 14.0162 16.1442 14.0162 15.73V10.15ZM17.9402 5.95001C17.9402 5.5358 18.276 5.20001 18.6902 5.20001C19.1044 5.20001 19.4402 5.5358 19.4402 5.95001V15.73C19.4402 16.1442 19.1044 16.48 18.6902 16.48C18.276 16.48 17.9402 16.1442 17.9402 15.73V5.95001Z" fill="currentColor" />
</svg>
