<svg width="12" height="12" viewBox="0 0 12 12" fill="none" xmlns="http://www.w3.org/2000/svg">
<g clip-path="url(#clip0_666_2669)">
<path d="M5.38742 6.40837L4.57075 5.59171C4.45409 5.47504 4.31797 5.41671 4.16242 5.41671C4.00686 5.41671 3.87075 5.47504 3.75409 5.59171C3.63742 5.70837 3.57909 5.84701 3.57909 6.00762C3.57909 6.16823 3.63742 6.30668 3.75409 6.42296L4.97909 7.66254C5.09575 7.77921 5.23186 7.83754 5.38742 7.83754C5.54297 7.83754 5.67908 7.77921 5.79575 7.66254L8.27492 5.18337C8.39158 5.06671 8.44992 4.92826 8.44992 4.76804C8.44992 4.60782 8.39158 4.46918 8.27492 4.35212C8.15825 4.23507 8.01981 4.17673 7.85958 4.17712C7.69936 4.17751 7.56072 4.23585 7.44367 4.35212L5.38742 6.40837ZM5.99992 11.775C5.93186 11.775 5.86867 11.7702 5.81034 11.7605C5.752 11.7507 5.69367 11.7362 5.63533 11.7167C4.32284 11.2792 3.2777 10.4699 2.49992 9.28887C1.72214 8.10782 1.33325 6.83654 1.33325 5.47504V2.71879C1.33325 2.47574 1.40384 2.25698 1.545 2.06254C1.68617 1.8681 1.86836 1.72712 2.09159 1.63962L5.59159 0.327124C5.7277 0.278513 5.86381 0.254208 5.99992 0.254208C6.13603 0.254208 6.27214 0.278513 6.40825 0.327124L9.90825 1.63962C10.1319 1.72712 10.3143 1.8681 10.4554 2.06254C10.5966 2.25698 10.667 2.47574 10.6666 2.71879V5.47504C10.6666 6.83615 10.2777 8.10743 9.49992 9.28887C8.72214 10.4703 7.677 11.2796 6.3645 11.7167C6.30617 11.7362 6.24784 11.7507 6.1895 11.7605C6.13117 11.7702 6.06797 11.775 5.99992 11.775ZM5.99992 10.6084C7.01103 10.2875 7.84714 9.64587 8.50825 8.68337C9.16936 7.72087 9.49992 6.65143 9.49992 5.47504V2.71879L5.99992 1.40629L2.49992 2.71879V5.47504C2.49992 6.65143 2.83047 7.72087 3.49159 8.68337C4.1527 9.64587 4.98881 10.2875 5.99992 10.6084Z" fill="currentColor"/>
</g>
<defs>
<clipPath id="clip0_666_2669">
<rect width="11.6667" height="11.6667" fill="currentColor" transform="translate(0.166748 0.166666)"/>
</clipPath>
</defs>
</svg>
